<!DOCTYPE svg PUBLIC "-//W3C//DTD SVG 1.1//EN" "http://www.w3.org/Graphics/SVG/1.1/DTD/svg11.dtd">
<!-- Uploaded to: SVG Repo, www.svgrepo.com, Transformed by: SVG Repo Mixer Tools -->
<svg width="800px" height="800px" viewBox="-2.4 -2.4 28.80 28.80" id="add-reaction" xmlns="http://www.w3.org/2000/svg" fill="#000000">
<g id="SVGRepo_bgCarrier" stroke-width="0"/>
<g id="SVGRepo_tracerCarrier" stroke-linecap="round" stroke-linejoin="round"/>
<g id="SVGRepo_iconCarrier"> <rect id="Rectangle_3" data-name="Rectangle 3" width="24" height="24" fill="none"/> <path id="Oval" d="M8.4,0a8.4,8.4,0,0,0,0,16.8h0a8.4,8.4,0,0,0,8.4-8.4" transform="translate(2.4 4.8)" fill="none" stroke="#000000" stroke-miterlimit="10" stroke-width="0.336"/> <path id="Oval-2" data-name="Oval" d="M0,0A4.807,4.807,0,0,0,1.042,1.557,4.785,4.785,0,0,0,4.436,2.963h0A4.785,4.785,0,0,0,7.83,1.557,4.807,4.807,0,0,0,8.872,0" transform="translate(6.364 15.037)" fill="none" stroke="#000000" stroke-miterlimit="10" stroke-width="0.336"/> <circle id="Oval-3" data-name="Oval" cx="1.2" cy="1.2" r="1.2" transform="translate(7.2 9.6)" fill="#ffffff" stroke="#000000" stroke-width="0.336"/> <circle id="Oval-4" data-name="Oval" cx="1.2" cy="1.2" r="1.2" transform="translate(12 9.6)" fill="#ffffff" stroke="#000000" stroke-width="0.336"/> <path id="Line" d="M1.2,0V7.2" transform="translate(18 1.2)" fill="none" stroke="#000000" stroke-linecap="square" stroke-miterlimit="10" stroke-width="0.336"/> <path id="Line-2" data-name="Line" d="M0,1.2H7.2" transform="translate(15.6 3.6)" fill="none" stroke="#000000" stroke-linecap="square" stroke-miterlimit="10" stroke-width="0.336"/> </g>
</svg>