<svg xmlns="http://www.w3.org/2000/svg" version="1.1" xmlns:xlink="http://www.w3.org/1999/xlink" xmlns:svgjs="http://svgjs.dev/svgjs" viewBox="0 0 800 800"><defs><linearGradient x1="50%" y1="0%" x2="50%" y2="100%" id="ccchaos-grad"><stop stop-color="hsl(206, 75%, 49%)" stop-opacity="1" offset="0%"></stop><stop stop-color="hsl(331, 90%, 56%)" stop-opacity="1" offset="100%"></stop></linearGradient></defs><g stroke-width="2" stroke="url(#ccchaos-grad)" fill="none" stroke-linecap="round"><path d="M378.96 123.46C388.34 121.87 397.66 120.18 406.91 118.58 416.17 116.73 425.38 115.39 434.52 114.71 443.69 114.39 452.83 115.06 461.93 116.78 471.1 119.15 480.26 122.62 489.43 127.1 498.71 132.15 508.02 138.01 517.38 144.55 526.88 151.3 536.45 158.45 546.08 165.86 555.86 173.13 565.71 180.46 575.58 187.78 585.58 194.75 595.57 201.65 605.49 208.47 615.45 214.92 625.25 221.35 634.79 227.78 644.2 233.94 653.22 240.21 661.72 246.64 669.89 252.91 677.37 259.43 684.04 266.23 690.15 272.98 695.29 280.05 699.35 287.46 702.7 294.88 704.89 302.65 705.85 310.76 706.09 318.89 705.13 327.35 703.01 336.12 700.32 344.91 696.64 353.99 692.05 363.33 687.26 372.69 681.85 382.3 675.98 392.14 670.37 401.99 664.74 411.84 659.25 421.68 654.4 431.52 649.86 441.35 645.72 451.16 642.39 461 639.48 470.82 636.97 480.62 635.23 490.45 633.79 500.26 632.57 510.03 631.93 519.81 631.33 529.53 630.66 539.12 630.31 548.68 629.71 558.06 628.76 567.17 627.87 576.14 626.48 584.73 624.54 592.86 622.47 600.68 619.74 607.91 616.35 614.45 612.74 620.57 608.42 625.93 603.43 630.48 598.2 634.62 592.3 638.01 585.8 640.68 579.09 643.18 571.81 645.18 564.04 646.81 556.1 648.68 547.72 650.49 538.97 652.4 530.11 654.96 520.93 657.84 511.49 661.1 501.99 665.14 492.26 669.5 482.36 674.07 472.44 679.07 462.36 683.89 452.17 688.26 441.98 692.35 431.68 695.49 421.31 697.41 410.93 698.42 400.72 697.96 390.7 696.08 380.66 693.33 370.79 689.42 361.1 684.57 351.39 679.42 341.84 673.8 332.47 667.96 323.05 662.46 313.8 657.1 304.71 651.99 295.57 647.57 286.59 643.47 277.78 639.67 268.91 636.49 260.2 633.44 251.68 630.4 243.11 627.66 234.73 624.68 226.56 621.33 218.36 617.95 210.4 614.02 202.69 609.48 194.99 604.68 187.58 599.21 180.5 593.09 173.46 586.65 166.79 579.59 160.51 571.98 154.34 564.11 148.59 555.76 143.31 547.03 138.17 538.14 133.53 528.94 129.42 519.51 125.47 510 122.06 500.32 119.23 490.53 116.56 480.71 114.47 470.82 112.96 460.89 111.61 450.95 110.83 441 110.64 431.06 110.56 421.12 111.04 411.2 112.1 401.32 113.21 391.44 114.83 381.85 116.91 372.54 118.97 363.23 121.46 354.21 124.33 345.49 127.13 336.75 130.28 328.3 133.74 320.14 137.08 311.93 140.72 303.99 144.63 296.28 148.38 288.5 152.39 280.9 156.64 273.47 160.73 265.88 165.07 258.39 169.64 250.97 174.07 243.31 178.74 235.66 183.67 227.99 188.47 220.05 193.55 212.08 198.9 204.11 204.16 195.93 209.72 187.82 215.57 179.86 221.37 171.89 227.48 164.24 233.9 157.05 240.29 150.15 247.01 143.91 254.02 138.49 261.04 133.61 268.36 129.68 275.96 126.76 283.58 124.42 291.48 123.03 299.63 122.52 307.79 122.29 316.19 122.66 324.82 123.45 333.46 123.99 342.3 124.58 351.33 125.07 360.36 124.84 369.58 124.3 378.96 123.46" stroke-dasharray="95 130" transform="rotate(0, 400, 400)" opacity="0.38"></path><path d="M380.46 134.5C389.51 132.97 398.54 131.37 407.53 129.85 416.53 128.09 425.5 126.77 434.44 126.06 443.42 125.64 452.39 126.12 461.34 127.56 470.36 129.59 479.4 132.65 488.45 136.69 497.59 141.27 506.79 146.68 516.02 152.79 525.37 159.16 534.77 166 544.21 173.16 553.78 180.28 563.37 187.53 572.95 194.83 582.62 201.87 592.23 208.89 601.72 215.84 611.21 222.48 620.48 229.08 629.46 235.66 638.28 241.98 646.68 248.35 654.53 254.83 662.05 261.13 668.88 267.61 674.91 274.3 680.41 280.91 684.99 287.79 688.54 294.95 691.45 302.08 693.28 309.53 693.96 317.28 694.01 325.04 692.96 333.11 690.83 341.48 688.22 349.86 684.69 358.53 680.33 367.48 675.8 376.43 670.69 385.65 665.13 395.13 659.82 404.6 654.46 414.11 649.19 423.63 644.5 433.15 640.06 442.69 635.95 452.21 632.57 461.75 629.55 471.28 626.88 480.79 624.91 490.3 623.21 499.78 621.72 509.18 620.78 518.56 619.89 527.84 618.96 536.95 618.36 545.98 617.56 554.77 616.48 563.25 615.5 571.54 614.09 579.42 612.2 586.8 610.25 593.87 607.71 600.35 604.59 606.15 601.29 611.58 597.36 616.3 592.81 620.29 588.06 623.97 582.69 626.99 576.75 629.43 570.61 631.79 563.93 633.77 556.77 635.48 549.45 637.5 541.69 639.53 533.54 641.69 525.3 644.48 516.71 647.58 507.83 651 498.9 655.13 489.71 659.51 480.32 664.02 470.9 668.88 461.3 673.52 451.56 677.69 441.81 681.57 431.93 684.55 421.94 686.37 411.95 687.36 402.09 686.97 392.38 685.25 382.66 682.72 373.08 679.07 363.66 674.51 354.22 669.62 344.92 664.23 335.77 658.55 326.59 653.13 317.56 647.75 308.67 642.56 299.76 637.96 290.98 633.63 282.36 629.58 273.71 626.12 265.21 622.82 256.89 619.58 248.54 616.71 240.38 613.68 232.42 610.39 224.46 607.16 216.73 603.49 209.25 599.33 201.8 595 194.64 590.08 187.79 584.57 181.01 578.81 174.59 572.46 168.55 565.58 162.62 558.46 157.11 550.86 152.06 542.84 147.15 534.66 142.72 526.13 138.81 517.34 135.05 508.45 131.83 499.35 129.15 490.1 126.65 480.8 124.69 471.39 123.31 461.92 122.07 452.44 121.4 442.91 121.29 433.37 121.3 423.83 121.84 414.29 122.95 404.79 124.1 395.28 125.74 386.03 127.83 377.04 129.9 368.05 132.38 359.32 135.23 350.85 138.01 342.36 141.12 334.12 144.54 326.11 147.84 318.06 151.42 310.22 155.26 302.56 158.95 294.81 162.89 287.2 167.06 279.72 171.07 272.07 175.31 264.49 179.78 256.94 184.1 249.19 188.65 241.44 193.44 233.68 198.11 225.71 203.03 217.75 208.2 209.84 213.28 201.8 218.63 193.9 224.26 186.22 229.82 178.61 235.68 171.39 241.82 164.69 247.93 158.31 254.34 152.62 261.03 147.75 267.71 143.39 274.68 139.94 281.92 137.43 289.17 135.42 296.69 134.28 304.46 133.92 312.23 133.77 320.25 134.13 328.49 134.86 336.74 135.31 345.21 135.79 353.87 136.18 362.54 135.89 371.41 135.33 380.46 134.5" stroke-dasharray="131 32" transform="rotate(4.04, 400, 400)" opacity="0.96"></path><path d="M382.6 145.54C391.33 144.08 400.07 142.56 408.79 141.13 417.53 139.44 426.27 138.16 435 137.43 443.76 136.92 452.54 137.24 461.32 138.43 470.16 140.14 479.03 142.82 487.92 146.42 496.9 150.54 505.91 155.49 514.96 161.14 524.1 167.09 533.28 173.56 542.48 180.41 551.76 187.3 561.03 194.39 570.26 201.59 579.54 208.62 588.72 215.67 597.74 222.7 606.71 229.46 615.43 236.2 623.83 242.92 632.04 249.39 639.8 255.89 647.02 262.45 653.89 268.82 660.09 275.32 665.51 281.97 670.44 288.52 674.49 295.28 677.57 302.27 680.08 309.21 681.57 316.42 682.02 323.9 681.9 331.36 680.78 339.11 678.67 347.14 676.14 355.16 672.77 363.47 668.63 372.05 664.36 380.63 659.54 389.48 654.29 398.59 649.26 407.7 644.16 416.85 639.13 426.02 634.6 435.19 630.27 444.38 626.21 453.56 622.8 462.74 619.7 471.91 616.89 481.04 614.73 490.15 612.8 499.2 611.06 508.14 609.84 517.04 608.68 525.79 607.5 534.32 606.65 542.74 605.65 550.89 604.41 558.68 603.31 566.26 601.85 573.41 599.97 580.04 596.88 589.27 587.92 604.17 581.94 609.79 577.6 613.1 572.69 615.86 567.24 618.14 561.63 620.45 555.51 622.47 548.9 624.31 542.16 626.51 534.99 628.76 527.42 631.16 519.75 634.16 511.74 637.44 503.42 641.01 495.04 645.19 486.39 649.55 477.51 653.98 468.6 658.69 459.49 663.14 450.2 667.11 440.9 670.79 431.45 673.6 421.86 675.33 412.27 676.3 402.78 675.98 393.4 674.41 384.02 672.09 374.76 668.7 365.62 664.43 356.47 659.81 347.44 654.66 338.54 649.18 329.62 643.86 320.83 638.52 312.18 633.28 303.5 628.55 294.96 624.04 286.57 619.76 278.15 616.05 269.89 612.5 261.8 609.05 253.69 605.98 245.77 602.84 238.06 599.53 230.35 596.37 222.87 592.86 215.65 588.95 208.47 584.98 201.57 580.5 194.99 575.5 188.48 570.33 182.31 564.61 176.53 558.39 170.86 551.97 165.6 545.07 160.79 537.76 156.11 530.29 151.91 522.45 148.2 514.32 144.65 506.08 141.61 497.59 139.1 488.92 136.75 480.19 134.94 471.32 133.68 462.34 132.57 453.35 131.99 444.28 131.96 435.17 132.04 426.06 132.65 416.92 133.79 407.78 134.98 398.65 136.64 389.73 138.73 381.04 140.81 372.35 143.27 363.87 146.1 355.62 148.85 347.34 151.92 339.27 155.29 331.39 158.55 323.45 162.07 315.67 165.85 308.04 169.48 300.31 173.34 292.69 177.43 285.14 181.37 277.45 185.52 269.81 189.89 262.19 194.12 254.4 198.56 246.61 203.23 238.86 207.77 230.95 212.55 223.09 217.56 215.34 222.47 207.54 227.64 199.93 233.06 192.62 238.41 185.45 244.04 178.71 249.93 172.53 255.78 166.7 261.9 161.57 268.3 157.23 274.67 153.38 281.32 150.37 288.24 148.24 295.14 146.53 302.31 145.6 309.73 145.36 317.14 145.26 324.79 145.6 332.68 146.25 340.57 146.61 348.68 146.99 357 147.28 365.32 146.93 373.85 146.35 382.59 145.54" stroke-dasharray="144 147" transform="rotate(8.08, 400, 400)" opacity="0.80"></path><path d="M385.3 156.57C393.72 155.18 402.17 153.75 410.63 152.4 419.1 150.8 427.59 149.56 436.1 148.82 444.63 148.25 453.19 148.42 461.77 149.38 470.39 150.81 479.06 153.12 487.74 156.31 496.5 159.98 505.29 164.45 514.09 169.63 522.97 175.14 531.87 181.19 540.75 187.67 549.69 194.25 558.6 201.11 567.43 208.13 576.26 215.06 584.96 222.07 593.47 229.1 601.9 235.92 610.05 242.74 617.84 249.55 625.44 256.14 632.57 262.75 639.16 269.39 645.41 275.85 651 282.4 655.84 289.06 660.23 295.6 663.79 302.3 666.45 309.18 668.58 316 669.78 323.04 670.02 330.3 669.76 337.54 668.58 345.03 666.51 352.76 664.07 360.49 660.86 368.48 656.95 376.72 652.93 384.95 648.39 393.45 643.45 402.18 638.7 410.92 633.86 419.7 629.05 428.49 624.69 437.29 620.49 446.09 616.5 454.87 613.08 463.64 609.92 472.38 607 481.05 604.68 489.69 602.55 498.24 600.59 506.65 599.11 514.99 597.69 523.14 596.27 531.04 595.19 538.81 593.97 546.27 592.57 553.35 591.33 560.23 589.79 566.66 587.89 572.58 584.86 580.8 576.42 594.03 570.88 599.05 564.63 603.38 549.41 610.26 540.5 613.32 534.3 615.71 527.66 618.18 520.64 620.81 513.53 624 506.06 627.44 498.28 631.1 490.44 635.31 482.32 639.63 473.94 643.96 465.54 648.5 456.92 652.75 448.09 656.52 439.26 660 430.24 662.66 421.07 664.29 411.9 665.23 402.79 664.97 393.77 663.55 384.75 661.44 375.82 658.31 366.99 654.32 358.15 649.98 349.41 645.08 340.79 639.82 332.16 634.65 323.64 629.38 315.25 624.15 306.84 619.34 298.55 614.69 290.41 610.23 282.26 606.28 274.26 602.49 266.43 598.81 258.59 595.54 250.94 592.24 243.49 588.85 236.07 585.66 228.86 582.22 221.92 578.48 215.02 574.74 208.4 570.58 202.1 566 195.87 561.29 189.99 556.11 184.47 550.47 179.08 544.68 174.08 538.43 169.51 531.77 165.08 524.97 161.1 517.81 157.6 510.32 154.26 502.74 151.41 494.88 149.07 486.8 146.89 478.67 145.22 470.35 144.08 461.9 143.08 453.42 142.6 444.84 142.65 436.17 142.8 427.51 143.46 418.78 144.63 410.02 145.86 401.26 147.53 392.67 149.61 384.27 151.68 375.86 154.13 367.62 156.92 359.57 159.64 351.49 162.68 343.56 165.99 335.78 169.2 327.95 172.67 320.23 176.38 312.63 179.95 304.93 183.75 297.3 187.76 289.74 191.62 282.05 195.7 274.39 199.97 266.77 204.11 259.02 208.45 251.29 213.01 243.63 217.43 235.88 222.08 228.22 226.95 220.73 231.71 213.25 236.72 206.04 241.95 199.16 247.12 192.48 252.53 186.27 258.19 180.64 263.8 175.36 269.68 170.78 275.8 166.95 281.9 163.57 288.26 160.98 294.87 159.18 301.46 157.74 308.3 156.98 315.39 156.83 322.47 156.76 329.79 157.06 337.34 157.63 344.89 157.89 352.66 158.17 360.66 158.37 368.65 157.97 376.86 157.37 385.29 156.57" stroke-dasharray="76 40" transform="rotate(12.12, 400, 400)" opacity="0.42"></path><path d="M388.47 167.61C396.59 166.29 404.75 164.94 412.94 163.67 421.14 162.16 429.37 160.97 437.62 160.23 445.9 159.61 454.22 159.66 462.56 160.42 470.94 161.58 479.36 163.56 487.79 166.34 496.28 169.58 504.79 173.59 513.31 178.29 521.87 183.33 530.43 188.93 538.96 195 547.51 201.22 555.99 207.76 564.37 214.53 572.72 221.27 580.91 228.14 588.87 235.09 596.74 241.88 604.3 248.72 611.49 255.56 618.47 262.22 624.99 268.9 630.96 275.6 636.61 282.14 641.62 288.74 645.92 295.41 649.81 301.97 652.91 308.64 655.17 315.46 656.97 322.2 657.91 329.11 657.97 336.21 657.6 343.28 656.39 350.55 654.36 358.04 652.02 365.51 648.98 373.21 645.29 381.13 641.51 389.05 637.25 397.2 632.6 405.57 628.13 413.93 623.55 422.33 618.97 430.71 614.79 439.1 610.71 447.47 606.8 455.8 603.41 464.12 600.21 472.38 597.21 480.54 594.75 488.66 592.45 496.65 590.3 504.47 588.59 512.21 586.94 519.72 585.3 526.96 583.98 534.07 582.56 540.84 580.99 547.22 578.78 556.29 572.99 571.77 569.19 578.07 564.91 583.6 553.94 592.28 547.23 595.74 542.49 598.11 537.29 600.35 531.67 602.55 525.95 605.13 519.81 607.81 513.29 610.64 506.7 614 499.76 617.56 492.49 621.29 485.17 625.48 477.56 629.74 469.68 633.95 461.78 638.31 453.64 642.36 445.28 645.93 436.91 649.21 428.34 651.71 419.6 653.26 410.86 654.17 402.15 653.97 393.5 652.69 384.86 650.76 376.28 647.88 367.78 644.18 359.28 640.12 350.86 635.49 342.54 630.47 334.22 625.47 325.99 620.33 317.89 615.15 309.77 610.3 301.78 605.56 293.92 600.96 286.06 596.82 278.34 592.82 270.79 588.93 263.26 585.44 255.89 581.96 248.74 578.44 241.62 575.16 234.71 571.71 228.06 568.04 221.47 564.43 215.15 560.5 209.14 556.21 203.22 551.87 197.62 547.12 192.39 541.96 187.28 536.69 182.54 531.01 178.23 524.94 174.05 518.76 170.31 512.21 167.03 505.34 163.9 498.39 161.24 491.14 159.08 483.65 157.06 476.11 155.53 468.35 154.51 460.43 153.63 452.48 153.24 444.38 153.36 436.18 153.58 427.97 154.28 419.65 155.48 411.27 156.72 402.89 158.4 394.63 160.47 386.51 162.53 378.38 164.95 370.38 167.7 362.52 170.39 354.63 173.37 346.85 176.63 339.19 179.79 331.47 183.2 323.84 186.84 316.28 190.35 308.65 194.08 301.07 198.01 293.54 201.81 285.92 205.81 278.33 209.99 270.79 214.05 263.16 218.3 255.59 222.74 248.12 227.06 240.62 231.6 233.26 236.33 226.12 240.96 219.05 245.81 212.29 250.88 205.92 255.87 199.76 261.1 194.1 266.56 189.03 271.95 184.31 277.6 180.25 283.48 176.91 289.32 173.97 295.41 171.75 301.74 170.24 308.04 169.02 314.59 168.4 321.38 168.32 328.15 168.25 335.16 168.51 342.4 168.99 349.62 169.16 357.08 169.34 364.76 169.45 372.43 169 380.34 168.39 388.46 167.61" stroke-dasharray="89 76" transform="rotate(16.16, 400, 400)" opacity="0.84"></path><path d="M392.02 178.65C399.84 177.39 407.71 176.13 415.61 174.94 423.52 173.52 431.48 172.39 439.46 171.65 447.46 171 455.51 170.95 463.57 171.54 471.67 172.46 479.8 174.13 487.94 176.55 496.12 179.37 504.31 182.92 512.48 187.14 520.69 191.7 528.86 196.83 536.98 202.45 545.09 208.25 553.12 214.42 561.01 220.86 568.85 227.33 576.5 233.99 583.9 240.76 591.19 247.45 598.16 254.21 604.75 261.01 611.12 267.67 617.04 274.36 622.42 281.07 627.49 287.65 631.96 294.28 635.75 300.96 639.16 307.52 641.85 314.18 643.76 320.94 645.26 327.62 645.97 334.44 645.88 341.4 645.42 348.32 644.19 355.41 642.22 362.68 639.99 369.92 637.12 377.36 633.65 384.98 630.11 392.59 626.12 400.41 621.76 408.4 617.56 416.4 613.23 424.39 608.88 432.35 604.88 440.31 600.94 448.22 597.13 456.07 593.77 463.9 590.56 471.64 587.51 479.25 584.94 486.82 582.5 494.23 580.19 501.43 578.28 508.55 576.43 515.42 574.58 522 573.04 528.45 571.43 534.56 569.69 540.28 567.25 548.42 561.3 562.25 557.57 567.91 553.46 572.97 543.15 581.24 536.9 584.75 532.51 587.22 527.7 589.62 522.49 592 517.2 594.78 511.52 597.65 505.47 600.66 499.36 604.15 492.9 607.79 486.12 611.56 479.3 615.71 472.18 619.88 464.79 623.94 457.38 628.12 449.71 631.97 441.82 635.32 433.91 638.41 425.8 640.76 417.49 642.22 409.18 643.1 400.89 642.95 392.64 641.8 384.39 640.07 376.18 637.43 368.04 634.01 359.9 630.23 351.82 625.88 343.83 621.12 335.84 616.33 327.94 611.34 320.14 606.25 312.35 601.43 304.67 596.65 297.12 591.96 289.58 587.66 282.18 583.48 274.94 579.4 267.72 575.7 260.68 572.04 253.84 568.37 247.04 564.95 240.45 561.43 234.12 557.76 227.85 554.2 221.85 550.39 216.15 546.3 210.53 542.21 205.24 537.78 200.3 533 195.48 528.16 191.02 522.95 186.97 517.39 183.05 511.74 179.55 505.75 176.49 499.44 173.58 493.06 171.11 486.39 169.11 479.45 167.26 472.48 165.87 465.27 164.98 457.86 164.2 450.43 163.9 442.82 164.09 435.07 164.36 427.31 165.11 419.42 166.32 411.42 167.58 403.41 169.26 395.49 171.31 387.66 173.35 379.82 175.74 372.07 178.44 364.41 181.09 356.73 184.02 349.13 187.22 341.6 190.32 334.03 193.67 326.52 197.23 319.07 200.68 311.56 204.34 304.09 208.2 296.67 211.92 289.18 215.84 281.75 219.94 274.38 223.92 266.98 228.08 259.66 232.42 252.48 236.65 245.32 241.07 238.35 245.68 231.64 250.19 225.05 254.9 218.79 259.82 212.95 264.66 207.35 269.71 202.25 274.98 197.74 280.18 193.55 285.62 189.99 291.27 187.11 296.88 184.56 302.73 182.67 308.8 181.41 314.84 180.38 321.12 179.87 327.63 179.82 334.11 179.74 340.82 179.94 347.76 180.33 354.69 180.41 361.84 180.49 369.22 180.52 376.59 180.03 384.19 179.41 392.01 178.65" stroke-dasharray="104 116" transform="rotate(20.200000000000003, 400, 400)" opacity="0.15"></path><path d="M395.82 189.68C403.34 188.49 410.91 187.31 418.52 186.2 426.13 184.87 433.79 183.8 441.48 183.09 449.19 182.42 456.93 182.29 464.69 182.73 472.47 183.44 480.27 184.83 488.08 186.9 495.91 189.34 503.73 192.46 511.51 196.21 519.32 200.29 527.07 204.93 534.73 210.07 542.38 215.42 549.92 221.16 557.29 227.21 564.6 233.34 571.69 239.7 578.53 246.22 585.23 252.71 591.61 259.31 597.6 265.98 603.39 272.55 608.72 279.18 613.54 285.85 618.07 292.41 622.02 299.01 625.34 305.65 628.33 312.2 630.63 318.82 632.23 325.51 633.46 332.13 633.98 338.86 633.76 345.69 633.23 352.48 632 359.4 630.1 366.45 627.98 373.48 625.28 380.66 622.03 387.99 618.72 395.31 615 402.79 610.92 410.41 606.98 418.03 602.9 425.61 598.78 433.14 594.97 440.65 591.18 448.1 587.47 455.44 584.17 462.77 580.97 469.97 577.9 477.02 575.25 484.02 572.7 490.84 570.25 497.42 568.17 503.94 566.14 510.19 564.11 516.13 561.48 524.72 556.03 539.92 552.99 546.43 549.85 552.38 542.15 562.28 537.46 566.39 532.36 570.36 520.17 577.86 513.09 581.72 508.18 584.66 502.91 587.71 497.29 590.86 491.62 594.44 485.61 598.13 479.29 601.9 472.93 605.98 466.28 610.03 459.36 613.94 452.42 617.92 445.22 621.56 437.78 624.71 430.34 627.61 422.68 629.81 414.82 631.18 406.95 632.03 399.08 631.93 391.24 630.91 383.39 629.35 375.58 626.95 367.81 623.8 360.05 620.3 352.34 616.25 344.7 611.75 337.07 607.2 329.52 602.39 322.06 597.45 314.62 592.7 307.28 587.93 300.06 583.2 292.87 578.81 285.8 574.49 278.9 570.26 272.02 566.37 265.32 562.52 258.82 558.69 252.36 555.13 246.12 551.5 240.11 547.77 234.18 544.19 228.51 540.42 223.13 536.44 217.84 532.51 212.86 528.3 208.22 523.8 203.7 519.28 199.53 514.44 195.74 509.29 192.09 504.09 188.83 498.57 185.99 492.75 183.29 486.88 181.01 480.72 179.19 474.3 177.5 467.84 176.25 461.14 175.47 454.23 174.8 447.29 174.58 440.16 174.83 432.85 175.16 425.54 175.94 418.07 177.17 410.45 178.44 402.83 180.1 395.24 182.12 387.71 184.14 380.18 186.49 372.7 189.13 365.27 191.73 357.83 194.61 350.43 197.74 343.08 200.78 335.71 204.06 328.38 207.55 321.09 210.93 313.77 214.52 306.49 218.29 299.27 221.95 292.01 225.79 284.82 229.8 277.73 233.69 270.63 237.77 263.66 242.01 256.86 246.15 250.12 250.46 243.61 254.96 237.39 259.35 231.32 263.94 225.61 268.71 220.33 273.4 215.29 278.3 210.75 283.39 206.77 288.42 203.09 293.66 200 299.11 197.52 304.52 195.33 310.14 193.72 315.97 192.68 321.77 191.79 327.79 191.36 334.03 191.32 340.25 191.22 346.69 191.36 353.34 191.65 359.98 191.64 366.84 191.63 373.93 191.58 381 191.06 388.3 190.42 395.81 189.69" stroke-dasharray="51 75" transform="rotate(24.24, 400, 400)" opacity="0.39"></path><path d="M399.77 200.72C406.97 199.6 414.24 198.49 421.53 197.47 428.83 196.23 436.18 195.22 443.54 194.53 450.93 193.87 458.34 193.67 465.76 193.99 473.19 194.52 480.64 195.66 488.07 197.42 495.51 199.5 502.93 202.2 510.29 205.51 517.66 209.11 524.95 213.27 532.14 217.92 539.29 222.78 546.31 228.06 553.15 233.67 559.91 239.4 566.45 245.39 572.7 251.58 578.83 257.79 584.63 264.14 590.05 270.59 595.26 277 600.04 283.49 604.32 290.02 608.34 296.48 611.82 303 614.71 309.55 617.3 316.03 619.26 322.57 620.57 329.16 621.58 335.69 621.93 342.3 621.61 348.98 621.03 355.63 619.82 362.37 618 369.21 615.99 376.03 613.46 382.96 610.42 389.99 607.35 397.02 603.88 404.16 600.07 411.4 596.39 418.64 592.57 425.81 588.67 432.89 585.04 439.96 581.42 446.93 577.84 453.76 574.6 460.58 571.44 467.25 568.36 473.74 565.66 480.19 563.03 486.44 560.48 492.44 557.17 501.21 551 517.18 547.97 524.28 545.11 530.89 538.69 542.27 534.97 547.09 531.04 551.62 521.64 559.69 516.1 563.48 510.17 567.58 496.53 576.38 488.85 581.24 483.57 584.87 477.98 588.57 472.09 592.3 466.17 596.29 459.96 600.2 453.49 603.94 447 607.72 440.25 611.14 433.27 614.09 426.28 616.8 419.07 618.85 411.66 620.15 404.24 620.96 396.81 620.91 389.38 620 381.96 618.61 374.55 616.43 367.17 613.55 359.81 610.34 352.48 606.58 345.22 602.37 337.97 598.06 330.79 593.48 323.7 588.72 316.63 584.08 309.66 579.38 302.8 574.67 295.97 570.23 289.27 565.83 282.72 561.49 276.21 557.44 269.87 553.44 263.72 549.46 257.62 545.74 251.73 541.99 246.08 538.17 240.5 534.52 235.17 530.74 230.13 526.79 225.17 522.94 220.51 518.86 216.18 514.55 211.96 510.26 208.07 505.7 204.56 500.86 201.17 496.01 198.15 490.88 195.54 485.47 193.05 480.03 190.97 474.32 189.31 468.35 187.78 462.36 186.67 456.13 185.99 449.67 185.43 443.19 185.29 436.51 185.59 429.63 185.97 422.75 186.78 415.68 188.01 408.45 189.28 401.22 190.93 393.99 192.92 386.78 194.9 379.57 197.2 372.38 199.79 365.22 202.34 358.05 205.15 350.91 208.2 343.81 211.18 336.68 214.38 329.59 217.79 322.55 221.1 315.49 224.61 308.48 228.3 301.54 231.88 294.6 235.63 287.74 239.56 281.01 243.37 274.31 247.36 267.76 251.5 261.42 255.54 255.16 259.76 249.17 264.14 243.48 268.42 237.96 272.89 232.81 277.53 228.1 282.09 223.61 286.83 219.61 291.76 216.14 299.16 211.6 314.86 205.58 323.17 204.02 328.75 203.25 334.53 202.87 340.52 202.82 346.48 202.69 352.66 202.75 359.04 202.94 365.4 202.84 371.98 202.75 378.77 202.63 385.55 202.08 392.55 201.44 399.76 200.72" stroke-dasharray="104 15" transform="rotate(28.28, 400, 400)" opacity="0.56"></path><path d="M403.71 211.76C410.61 210.7 417.55 209.67 424.52 208.73 431.49 207.58 438.5 206.64 445.53 205.99 452.56 205.34 459.62 205.09 466.66 205.3 473.73 205.69 480.78 206.61 487.8 208.09 494.83 209.84 501.81 212.16 508.73 215.04 515.63 218.19 522.44 221.87 529.12 226.02 535.77 230.4 542.26 235.18 548.55 240.32 554.76 245.6 560.73 251.16 566.43 256.96 571.99 262.8 577.22 268.83 582.08 274.99 586.75 281.14 591.01 287.39 594.78 293.72 598.34 300 601.38 306.35 603.87 312.75 606.1 319.09 607.76 325.48 608.82 331.92 609.63 338.32 609.84 344.77 609.45 351.28 608.83 357.75 607.65 364.29 605.91 370.9 604.03 377.49 601.67 384.15 598.84 390.88 595.99 397.61 592.77 404.41 589.23 411.27 585.8 418.13 582.22 424.89 578.55 431.52 575.12 438.15 571.65 444.65 568.21 450.99 565.06 457.32 561.95 463.48 558.9 469.44 556.18 475.36 553.5 481.07 550.87 486.53 547.39 494.52 540.81 509.02 537.58 515.46 534.52 521.52 527.85 532.09 524.11 536.69 520.21 541.12 511.11 549.32 505.83 553.29 500.23 557.6 487.45 566.8 480.27 571.78 475.36 575.43 470.15 579.1 464.66 582.77 459.14 586.63 453.35 590.39 447.31 593.94 441.25 597.5 434.94 600.71 428.4 603.47 421.86 605.99 415.09 607.9 408.12 609.11 401.16 609.89 394.16 609.88 387.16 609.08 380.17 607.85 373.17 605.89 366.21 603.27 359.26 600.33 352.34 596.86 345.47 592.95 338.62 588.92 331.83 584.58 325.13 580.03 318.45 575.56 311.86 570.97 305.39 566.33 298.94 561.9 292.62 557.47 286.46 553.07 280.33 548.93 274.36 544.81 268.59 540.71 262.86 536.85 257.34 532.97 252.05 529.05 246.83 525.31 241.86 521.47 237.15 517.52 230.37 511.67 218.47 499.14 213.43 492.36 208.92 485.35 201.92 470.1 199.48 461.86 198.1 456.27 197.12 450.45 196.56 444.4 196.09 438.35 196.02 432.08 196.38 425.61 196.8 419.14 197.62 412.47 198.85 405.63 200.12 398.78 201.74 391.91 203.69 385.05 205.63 378.19 207.88 371.32 210.4 364.48 212.88 357.62 215.62 350.79 218.59 343.98 221.5 337.18 224.62 330.4 227.93 323.67 231.17 316.95 234.59 310.29 238.18 303.72 241.68 297.16 245.35 290.72 249.18 284.42 252.91 278.18 256.8 272.12 260.85 266.29 264.8 260.56 268.91 255.11 273.17 249.99 277.35 245.03 281.7 240.45 286.2 236.28 292.94 230.58 307.17 221.9 314.69 218.96 322.32 216.75 338.46 214.55 346.98 214.3 352.7 214.12 358.62 214.11 364.73 214.21 370.83 214.03 377.13 213.86 383.63 213.66 390.11 213.09 396.81 212.45 403.7 211.76" stroke-dasharray="78 137" transform="rotate(32.32, 400, 400)" opacity="0.51"></path><path d="M407.54 222.8C414.11 221.8 420.72 220.85 427.35 219.98 433.98 218.92 440.63 218.06 447.29 217.45 453.96 216.82 460.63 216.55 467.28 216.68 473.94 216.94 480.58 217.68 487.17 218.91 493.76 220.36 500.28 222.34 506.72 224.82 513.14 227.54 519.45 230.76 525.62 234.43 531.74 238.31 537.7 242.6 543.44 247.24 549.11 252.03 554.53 257.12 559.67 262.47 564.68 267.9 569.38 273.53 573.7 279.31 577.86 285.13 581.62 291.07 584.94 297.11 588.05 303.13 590.69 309.23 592.83 315.39 594.74 321.52 596.13 327.71 596.98 333.94 597.61 340.13 597.71 346.38 597.26 352.66 596.63 358.92 595.49 365.23 593.85 371.57 592.09 377.9 589.9 384.28 587.28 390.7 584.64 397.11 581.67 403.56 578.38 410.04 575.2 416.51 571.86 422.86 568.42 429.06 565.18 435.26 561.89 441.3 558.59 447.18 555.54 453.04 552.51 458.71 549.51 464.18 545.43 472.24 537.81 487.15 534.2 493.93 530.91 500.4 524.27 511.96 520.81 517.08 517.37 521.98 509.69 530.87 505.35 535 500.81 539.28 490.43 547.94 484.56 552.47 478.4 557.44 464.66 567.91 457.1 573.28 451.96 577 446.57 580.58 440.93 583.94 435.28 587.28 429.39 590.27 423.28 592.83 417.17 595.17 410.85 596.94 404.33 598.07 397.8 598.82 391.25 598.84 384.68 598.15 378.12 597.07 371.56 595.31 365.02 592.94 358.49 590.28 351.99 587.1 345.54 583.49 339.1 579.75 332.72 575.68 326.43 571.38 320.16 567.1 313.97 562.67 307.9 558.16 301.86 553.8 295.94 549.4 290.16 545 284.43 540.8 278.86 536.61 273.46 532.44 268.13 528.46 262.99 524.48 258.07 520.47 253.22 516.64 248.6 512.73 244.24 508.75 237.97 502.88 227 490.56 222.38 484.01 218.24 477.31 211.88 462.86 209.7 455.1 208.05 447.12 206.78 430.09 207.18 421.07 207.64 414.99 208.48 408.71 209.7 402.25 210.95 395.79 212.54 389.3 214.44 382.81 216.34 376.31 218.52 369.81 220.97 363.32 223.38 356.82 226.04 350.35 228.91 343.9 231.74 337.46 234.77 331.06 237.99 324.73 241.14 318.41 244.46 312.16 247.96 306.03 251.37 299.93 254.94 293.96 258.67 288.16 262.31 282.43 266.1 276.9 270.04 271.61 273.89 266.44 277.9 261.55 282.04 256.99 288.23 250.56 301.25 239.94 308.1 235.84 315.02 232.46 329.63 228.03 337.33 226.87 345.15 226.05 361.65 225.48 370.33 225.44 376.16 225.18 382.18 224.94 388.38 224.69 394.58 224.1 400.96 223.46 407.53 222.8" stroke-dasharray="7 45" transform="rotate(36.36, 400, 400)" opacity="0.50"></path><path d="M411.13 233.83C417.36 232.9 423.62 232.02 429.89 231.23 436.17 230.26 442.45 229.48 448.72 228.91 461.29 227.72 473.8 227.98 486.08 229.86 498.33 232.45 510.25 236.94 521.59 243.15 532.74 250.14 543.12 258.62 552.44 268.23 561.3 278.23 568.85 289.04 574.81 300.37 580.06 311.74 583.54 323.47 585.07 335.38 585.87 347.23 584.77 359.26 581.82 371.37 580.18 377.41 578.15 383.48 575.74 389.56 573.32 395.63 570.57 401.73 567.54 407.82 564.59 413.91 561.49 419.85 558.28 425.64 555.23 431.42 552.12 437.03 548.98 442.47 543.35 453.31 537.69 463.39 532.11 472.57 527.43 481.68 522.67 489.87 517.75 497.1 513.46 504.35 508.73 510.8 503.44 516.52 498.44 522.64 492.64 528.4 485.97 533.95 479.36 540.35 471.76 546.83 463.19 553.31 454.58 560.61 444.99 567.63 434.49 573.93 429.23 577.04 423.75 579.82 418.06 582.19 412.36 584.35 406.47 585.99 400.39 587.03 394.31 587.75 388.19 587.8 382.06 587.2 375.94 586.26 369.81 584.7 363.7 582.58 351.52 577.54 339.44 570.74 327.67 562.72 315.99 554.67 304.67 546.05 293.89 537.23 283.29 529.03 273.31 520.77 264.16 512.48 255.27 504.8 247.3 496.86 240.43 488.57 233.91 480.59 228.56 471.99 224.54 462.74 220.91 453.58 218.62 443.63 217.79 432.94 217.54 424.83 218.91 407.68 220.54 398.65 221.78 392.58 223.33 386.48 225.17 380.37 227.01 374.26 229.13 368.15 231.49 362.05 236.13 349.87 241.67 337.78 247.95 325.98 253.98 314.27 260.7 302.98 268 292.37 275 282.07 282.59 272.68 290.71 264.51 298.55 256.91 306.98 250.72 315.96 246.13 324.73 242.1 334.13 239.53 344.12 238.33 353.99 237.07 364.53 236.6 375.71 236.64 381.27 236.32 387.01 236.01 392.91 235.71 398.81 235.1 404.88 234.47 411.12 233.84" stroke-dasharray="92 8" transform="rotate(40.400000000000006, 400, 400)" opacity="0.66"></path><path d="M414.35 244.87C426.13 242.89 437.96 241.31 449.7 240.38 461.46 239.25 473.1 239.38 484.45 240.94 495.76 243.05 506.68 246.84 516.99 252.21 527.1 258.26 536.43 265.74 544.73 274.34 552.6 283.36 559.24 293.24 564.4 303.7 568.95 314.28 571.9 325.28 573.09 336.49 573.68 347.7 572.58 359.09 569.81 370.52 566.74 381.94 562.32 393.42 556.7 404.83 551.36 416.24 545.49 427.03 539.37 437.11 533.97 447.16 528.45 456.48 522.93 464.97 518.19 473.44 513.33 481.11 508.31 487.96 503.86 494.92 499.02 501.23 493.71 506.98 488.69 513.16 482.98 519.08 476.55 524.83 470.19 531.33 462.98 537.85 454.92 544.28 446.85 551.33 437.89 558.01 428.12 563.9 418.32 569.59 407.73 573.79 396.44 576 385.14 577.04 373.73 575.69 362.37 572.17 351.06 567.66 339.86 561.47 328.94 554.05 318.13 546.49 307.65 538.27 297.71 529.72 287.93 521.62 278.76 513.38 270.36 505.07 262.22 497.3 254.94 489.31 248.7 481.06 242.78 473.12 237.95 464.71 234.36 455.78 231.11 446.97 229.11 437.5 228.47 427.4 228.11 417.32 229.06 406.56 231.38 395.19 233.83 383.82 237.42 372.37 241.96 361.02 246.44 349.7 251.77 338.52 257.81 327.68 263.64 316.96 270.13 306.72 277.18 297.21 283.96 287.99 291.32 279.7 299.16 272.58 306.76 265.94 314.91 260.6 323.55 256.68 332.02 253.16 341.05 250.9 350.62 249.8 360.08 248.54 370.14 247.95 380.77 247.82 391.35 246.79 402.56 245.81 414.34 244.87" stroke-dasharray="79 110" transform="rotate(44.44, 400, 400)" opacity="0.57"></path><path d="M417.11 255.91C428.17 254.08 439.23 252.66 450.15 251.84 461.06 250.78 471.81 250.84 482.23 252.13 492.58 253.82 502.51 257.01 511.8 261.61 520.91 266.78 529.23 273.29 536.56 280.89 543.52 288.89 549.31 297.78 553.74 307.29 557.68 316.97 560.15 327.12 561.06 337.52 561.48 347.97 560.4 358.61 557.83 369.3 555.03 380 551 390.73 545.85 401.37 540.95 412.01 535.51 422.04 529.76 431.39 524.61 440.73 519.28 449.39 513.88 457.32 509.14 465.26 504.24 472.53 499.18 479.12 494.62 485.88 489.72 492.12 484.41 497.93 479.39 504.17 473.78 510.2 467.56 516.08 461.43 522.6 454.57 529.06 446.98 535.35 439.4 542.1 431.04 548.39 421.96 553.86 412.86 559.1 403.04 562.94 392.6 564.96 382.16 565.97 371.61 564.82 361.13 561.71 350.7 557.72 340.38 552.13 330.34 545.34 320.39 538.33 310.77 530.58 301.67 522.41 292.72 514.54 284.35 506.44 276.72 498.24 269.32 490.45 262.72 482.48 257.1 474.31 251.76 466.43 247.43 458.18 244.26 449.54 241.38 441.02 239.66 431.98 239.19 422.42 238.97 412.89 239.96 402.8 242.23 392.2 244.61 381.59 248.05 370.98 252.4 360.52 256.69 350.09 261.79 339.87 267.56 330.05 273.17 320.35 279.41 311.17 286.18 302.74 292.72 294.59 299.81 287.33 307.35 281.17 314.69 275.4 322.53 270.8 330.83 267.44 338.97 264.33 347.63 262.3 356.76 261.24 365.79 259.96 375.37 259.25 385.44 258.95 395.47 257.85 406.04 256.83 417.11 255.91" stroke-dasharray="64 89" transform="rotate(48.48, 400, 400)" opacity="0.57"></path><path d="M419.31 266.95C429.64 265.27 439.9 264.01 449.97 263.29 460.03 262.34 469.88 262.34 479.35 263.42 488.75 264.78 497.7 267.44 506.01 271.34 514.15 275.72 521.52 281.31 527.94 287.94 534.05 294.94 539.08 302.81 542.86 311.32 546.24 320.04 548.31 329.25 548.99 338.77 549.28 348.35 548.24 358.17 545.87 368.06 543.34 377.96 539.69 387.91 535.01 397.77 530.54 407.64 525.51 416.95 520.16 425.63 515.28 434.33 510.18 442.43 504.95 449.89 500.26 457.4 495.39 464.36 490.35 470.76 485.74 477.36 480.82 483.56 475.56 489.42 470.56 495.67 465.06 501.76 459.05 507.69 453.14 514.13 446.61 520.45 439.46 526.51 432.33 532.89 424.53 538.77 416.11 543.81 407.68 548.59 398.62 552.08 389 553.92 379.39 554.89 369.71 553.93 360.11 551.21 350.54 547.71 341.1 542.72 331.93 536.57 322.85 530.15 314.1 522.95 305.84 515.26 297.72 507.74 290.14 499.91 283.26 491.91 276.58 484.24 270.67 476.38 265.64 468.35 260.87 460.58 257.03 452.51 254.25 444.16 251.72 435.92 250.26 427.28 249.95 418.25 249.85 409.25 250.87 399.8 253.07 389.96 255.37 380.12 258.66 370.36 262.78 360.81 266.87 351.29 271.73 342.05 277.22 333.24 282.58 324.56 288.54 316.43 294.99 309.04 301.27 301.88 308.06 295.57 315.28 290.27 322.32 285.26 329.83 281.27 337.76 278.35 345.55 275.58 353.8 273.7 362.47 272.65 371.06 271.33 380.12 270.5 389.61 270.05 399.06 268.88 408.98 267.83 419.31 266.95" stroke-dasharray="64 54" transform="rotate(52.52, 400, 400)" opacity="0.42"></path><path d="M420.89 277.98C430.45 276.46 439.9 275.34 449.11 274.74 458.32 273.89 467.26 273.88 475.8 274.79 484.27 275.87 492.27 278.08 499.64 281.38 506.85 285.05 513.32 289.8 518.91 295.51 524.23 301.54 528.57 308.41 531.79 315.93 534.68 323.64 536.4 331.88 536.9 340.46 537.1 349.12 536.12 358.05 533.96 367.09 531.68 376.15 528.4 385.3 524.17 394.39 520.11 403.49 515.5 412.11 510.54 420.19 505.98 428.29 501.13 435.88 496.12 442.95 491.55 450.09 486.77 456.78 481.81 463.03 477.22 469.48 472.34 475.63 467.16 481.49 462.22 487.7 456.86 493.75 451.06 499.62 445.38 505.89 439.17 511.98 432.44 517.74 425.74 523.71 418.48 529.13 410.69 533.73 402.9 538.07 394.57 541.22 385.76 542.88 376.96 543.81 368.12 543.02 359.38 540.66 350.68 537.62 342.11 533.22 333.81 527.72 325.59 521.93 317.7 515.34 310.26 508.2 302.95 501.13 296.16 493.69 290.02 486.04 284.05 478.6 278.78 470.96 274.34 463.18 270.11 455.59 266.74 447.77 264.34 439.74 262.15 431.82 260.93 423.59 260.76 415.08 260.77 406.6 261.8 397.8 263.91 388.72 266.12 379.64 269.24 370.72 273.13 362.07 277 353.46 281.59 345.17 286.77 337.36 291.85 329.65 297.5 322.5 303.62 316.07 309.6 309.82 316.06 304.35 322.91 299.79 329.63 295.42 336.78 291.94 344.29 289.37 351.7 286.85 359.52 285.08 367.7 284 375.82 282.64 384.34 281.7 393.22 281.11 402.07 279.89 411.32 278.84 420.89 277.98" stroke-dasharray="5 14" transform="rotate(56.56, 400, 400)" opacity="0.48"></path><path d="M421.78 289.02C430.57 287.64 439.19 286.67 447.55 286.17 455.89 285.44 463.93 285.43 471.56 286.22 479.12 287.1 486.21 288.94 492.69 291.72 499.02 294.76 504.67 298.77 509.49 303.64 514.1 308.77 517.82 314.69 520.54 321.23 523 327.95 524.44 335.2 524.79 342.83 524.92 350.54 524.02 358.55 522.07 366.72 520.05 374.91 517.12 383.23 513.32 391.56 509.67 399.89 505.48 407.84 500.93 415.35 496.68 422.87 492.13 430 487.38 436.71 482.98 443.5 478.35 449.94 473.54 456.03 469.03 462.31 464.25 468.34 459.21 474.14 454.37 480.22 449.18 486.14 443.63 491.85 438.18 497.85 432.3 503.63 425.99 509.03 419.72 514.54 412.98 519.48 405.8 523.64 398.62 527.53 391 530.35 382.99 531.85 374.97 532.72 366.96 532.09 359.07 530.07 351.21 527.46 343.5 523.63 336.06 518.77 328.68 513.62 321.62 507.67 315 501.17 308.48 494.64 302.45 487.7 297.02 480.51 291.74 473.44 287.1 466.15 283.22 458.71 279.51 451.42 276.58 443.93 274.53 436.29 272.65 428.73 271.65 420.95 271.61 412.99 271.71 405.06 272.74 396.9 274.76 388.57 276.85 380.25 279.79 372.16 283.43 364.4 287.06 356.66 291.36 349.3 296.22 342.42 300.99 335.62 306.31 329.37 312.06 323.8 317.71 318.35 323.8 313.61 330.26 309.66 336.61 305.83 343.35 302.75 350.42 300.45 357.41 298.11 364.76 296.4 372.42 295.28 380.03 293.87 387.98 292.83 396.23 292.13 404.45 290.88 413 289.83 421.78 289.02" stroke-dasharray="59 52" transform="rotate(60.599999999999994, 400, 400)" opacity="0.58"></path><path d="M421.98 300.06C429.97 298.82 437.76 297.99 445.26 297.59 452.74 296.97 459.91 296.99 466.65 297.69 473.34 298.41 479.56 299.96 485.2 302.3 493.16 306.5 505.29 319.13 509.15 327.28 511.24 333.05 512.44 339.34 512.68 346.03 512.77 352.79 511.95 359.88 510.23 367.18 508.45 374.5 505.85 381.99 502.47 389.56 499.21 397.13 495.44 404.41 491.3 411.37 487.39 418.34 483.17 425.01 478.72 431.35 474.55 437.77 470.13 443.94 465.53 449.83 461.16 455.87 456.55 461.72 451.7 467.35 447.02 473.2 442.04 478.88 436.76 484.33 431.58 489.98 426.04 495.36 420.16 500.34 414.32 505.35 408.09 509.81 401.51 513.51 394.94 516.98 388 519.48 380.76 520.81 373.51 521.63 366.31 521.13 359.25 519.43 352.2 517.23 345.33 513.93 338.72 509.71 332.17 505.19 325.92 499.93 320.09 494.1 314.34 488.19 309.04 481.85 304.3 475.22 299.67 468.64 295.64 461.82 292.28 454.85 289.06 447.97 286.55 440.91 284.82 433.73 283.24 426.62 282.44 419.35 282.5 411.97 282.68 404.62 283.7 397.12 285.6 389.55 287.58 381.98 290.31 374.7 293.69 367.78 297.06 360.88 301.05 354.37 305.56 348.35 310.01 342.38 314.96 336.94 320.31 332.1 325.59 327.35 331.27 323.22 337.3 319.78 343.24 316.38 349.54 313.62 356.12 311.5 362.65 309.31 369.49 307.64 376.6 306.46 383.66 305.01 391.02 303.9 398.6 303.1 406.17 301.85 413.98 300.82 421.98 300.06" stroke-dasharray="45 101" transform="rotate(64.64, 400, 400)" opacity="0.91"></path><path d="M421.45 311.1C428.64 310 435.59 309.29 442.25 308.99 448.89 308.5 455.2 308.55 461.1 309.19 469.65 310.46 484.07 316.59 489.68 321.46 494.4 327.18 499.92 341.68 500.59 350.16 500.65 356.01 499.93 362.2 498.42 368.64 496.87 375.09 494.6 381.77 491.63 388.58 488.75 395.39 485.39 402.01 481.66 408.39 478.11 414.79 474.24 420.99 470.13 426.94 466.24 432.96 462.09 438.79 457.74 444.4 453.59 450.13 449.2 455.7 444.61 461.06 440.15 466.58 435.43 471.93 430.47 477.02 425.59 482.23 420.42 487.15 414.98 491.65 409.57 496.14 403.86 500.1 397.88 503.36 391.91 506.41 385.65 508.6 379.16 509.77 372.66 510.53 366.24 510.16 359.98 508.74 353.74 506.92 347.67 504.13 341.87 500.51 336.11 496.63 330.65 492.05 325.57 486.92 320.56 481.69 315.96 476.02 311.87 470.04 307.87 464.06 304.4 457.82 301.53 451.42 298.78 445.06 296.66 438.54 295.23 431.93 293.91 425.35 293.3 418.66 293.44 411.91 293.68 405.17 294.67 398.36 296.45 391.55 298.28 384.73 300.8 378.23 303.9 372.11 307.01 366 310.67 360.28 314.8 355.02 318.89 349.8 323.45 345.06 328.37 340.86 333.24 336.69 338.49 333.07 344.04 330.03 349.53 326.98 355.34 324.47 361.41 322.49 367.43 320.4 373.72 318.76 380.23 317.53 386.71 316.06 393.43 314.9 400.32 314.04 407.2 312.81 414.27 311.81 421.45 311.1" stroke-dasharray="114 81" transform="rotate(68.68, 400, 400)" opacity="0.57"></path><path d="M420.24 322.13C432.97 319.93 444.72 319.42 454.95 320.68 465.03 321.78 473.35 325.3 479.37 331.04 485.01 337.11 488.18 345.37 488.52 355.23 488.57 365.25 486 376.6 480.79 388.71 475.86 400.82 469.23 412.53 461.6 423.5 454.61 434.65 446.6 445.33 437.91 455.21 429.67 465.47 420.45 474.96 410.46 482.95 400.6 490.78 389.75 496.4 378.23 498.73 366.71 499.78 355.63 497 345.55 491.17 335.58 484.44 326.78 475.33 319.74 464.85 312.99 454.24 308.15 442.62 305.75 430.67 303.68 418.78 304.07 406.5 307.29 394.38 310.69 382.25 316.46 371.4 323.94 362.24 331.34 353.12 340.38 345.71 350.48 340.29 360.45 334.73 371.55 330.79 383.31 328.48 395.02 325.3 407.5 323.12 420.24 322.13" stroke-dasharray="5 113" transform="rotate(72.72, 400, 400)" opacity="0.59"></path><path d="M418.36 333.17C429.46 331.3 439.57 330.96 448.27 332.17 456.85 333.15 463.85 336.13 468.85 340.96 473.59 345.96 476.23 352.84 476.49 361.18 476.55 369.62 474.4 379.35 469.94 389.95 465.7 400.55 459.89 411.01 453.12 420.95 446.8 431 439.5 440.72 431.58 449.69 424 458.86 415.59 467.26 406.6 474.21 397.72 480.94 388.08 485.73 378.01 487.7 367.93 488.69 358.37 486.47 349.78 481.67 341.25 476.13 333.82 468.48 327.95 459.51 322.27 450.35 318.28 440.2 316.38 429.69 314.73 419.2 315.21 408.38 318.13 397.75 321.2 387.13 326.34 377.7 332.98 369.76 339.59 361.81 347.65 355.3 356.64 350.44 365.56 345.37 375.46 341.64 385.88 339.29 396.28 336.23 407.27 334.11 418.36 333.17" stroke-dasharray="54 11" transform="rotate(76.76, 400, 400)" opacity="0.62"></path><path d="M415.9 344.21C425.35 342.65 433.88 342.47 441.13 343.61 451.2 345.79 463.21 358.07 464.5 367.86 464.59 374.87 462.83 383.08 459.1 392.17 455.53 401.26 450.55 410.38 444.67 419.14 439.1 427.96 432.62 436.52 425.59 444.39 418.79 452.34 411.29 459.55 403.38 465.42 395.54 471.06 387.14 475.03 378.5 476.66 369.85 477.57 361.76 475.86 354.57 472.01 347.43 467.6 341.27 461.35 336.47 453.92 331.8 446.28 328.58 437.69 327.13 428.74 325.85 419.76 326.38 410.47 328.98 401.35 331.69 392.23 336.17 384.14 341.94 377.3 347.7 370.43 354.72 364.73 362.54 360.36 370.33 355.77 378.94 352.27 387.96 349.95 396.98 347.07 406.43 345.08 415.9 344.21" stroke-dasharray="27 119" transform="rotate(80.80000000000001, 400, 400)" opacity="0.32"></path><path d="M412.91 355.25C420.74 353.99 427.72 353.94 433.62 355 441.8 356.94 451.5 367.08 452.56 375.1 452.68 380.82 451.28 387.58 448.26 395.16 445.33 402.74 441.19 410.43 436.24 417.87 431.49 425.33 425.92 432.57 419.88 439.19 413.98 445.82 407.52 451.76 400.74 456.54 394.02 461.12 386.91 464.31 379.69 465.62 372.46 466.43 365.79 465.16 359.93 462.18 354.1 458.79 349.14 453.89 345.32 447.95 341.59 441.84 339.06 434.87 338 427.51 337.04 420.12 337.58 412.42 339.82 404.81 342.14 397.21 345.94 390.41 350.8 384.61 355.68 378.77 361.6 373.83 368.2 369.94 374.78 365.87 382.04 362.67 389.61 360.45 397.19 357.83 405.08 356.03 412.91 355.25" stroke-dasharray="19 47" transform="rotate(84.84, 400, 400)" opacity="0.76"></path><path d="M409.51 366.28C421.93 364.05 431.46 366.12 436.63 371.68 441.6 377.08 442.18 386.48 437.41 398.63 432.91 410.77 424.44 423.39 414.42 433.97 404.75 444.41 393.15 452.29 381.54 454.58 369.92 455.62 360.37 450.41 354.49 441.54 348.79 432.13 347.02 419.99 350.66 407.81 354.52 395.62 363.02 385.69 373.64 379.1 384.29 371.98 397.08 367.29 409.51 366.28" stroke-dasharray="6 125" transform="rotate(88.88, 400, 400)" opacity="0.74"></path><path d="M405.8 377.32C418.54 376.63 429.79 389.56 426.57 402.22 423.24 411.34 416.82 420.78 409.15 428.59 401.66 436.25 392.74 441.94 383.98 443.55 375.22 444.45 368.18 440.89 363.98 434.6 359.84 427.99 358.67 419.17 361.51 410.03 364.47 400.89 370.9 393.14 378.91 387.76 386.95 382.05 396.55 378.2 405.8 377.32" stroke-dasharray="119 79" transform="rotate(92.92, 400, 400)" opacity="0.96"></path><path d="M401.89 388.36C414.1 386.11 420.26 393.42 415.73 405.6 411.44 417.77 398.72 430.23 386.95 432.51 375.17 433.54 368.49 423.47 372.35 411.28 376.44 399.07 389.68 389.37 401.89 388.36" stroke-dasharray="126 57" transform="rotate(96.96, 400, 400)" opacity="0.85"></path></g></svg>