<svg xmlns="http://www.w3.org/2000/svg" version="1.1" xmlns:xlink="http://www.w3.org/1999/xlink" xmlns:svgjs="http://svgjs.dev/svgjs" viewBox="0 0 800 800"><defs><linearGradient x1="50%" y1="0%" x2="50%" y2="100%" id="ccchaos-grad"><stop stop-color="hsl(206, 75%, 49%)" stop-opacity="1" offset="0%"></stop><stop stop-color="hsl(331, 90%, 56%)" stop-opacity="1" offset="100%"></stop></linearGradient></defs><g stroke-width="2" stroke="url(#ccchaos-grad)" fill="none" stroke-linecap="round"><path d="M381.54 76.61Q392.44 84.08 403.87 91.16 415.79 97.73 428.13 103.71 440.82 109.03 453.76 113.67 466.85 117.64 479.98 120.97 493.04 123.76 505.91 126.09 518.47 128.1 530.61 129.95 542.23 131.8 553.25 133.82 563.57 136.17 573.15 139.01 581.93 142.46 589.91 146.63 603.09 157.76 614.07 171.25 618.46 179.23 622.37 187.74 625.92 196.62 629.26 205.69 632.52 214.76 635.87 223.62 643.66 239.64 653.02 253.52 648.82 264.22 648.45 274.92 651.95 285.63 658.96 296.33 668.76 307.04 680.33 317.74 692.49 328.44 703.98 339.15 713.62 349.85 720.41 360.56 723.65 371.26 723 381.96 718.54 392.67 710.73 403.37 700.36 414.08 688.52 424.78 676.41 435.48 665.29 446.19 656.31 456.89 650.38 467.6 648.13 478.3 649.79 489.01 655.18 499.71 663.74 510.41 674.6 521.12 686.64 531.82 698.61 542.53 709.27 553.23 717.54 563.94 722.56 574.64 723.8 585.34 721.15 596.05 709.08 599.73 696.26 601.92 682.81 602.75 668.87 602.42 654.57 601.18 640.08 599.35 625.53 597.27 611.08 595.31 596.88 593.81 583.05 593.13 569.71 593.56 556.97 595.35 544.9 598.68 533.58 603.68 523.04 610.36 513.3 618.66 504.36 628.46 496.19 639.52 488.75 651.58 481.98 664.3 475.79 677.29 470.1 690.19 464.79 702.59 459.77 714.13 454.92 724.48 450.11 733.36 440.08 745.11 429.25 751.48 423.16 751.72 416.58 750.57 404.69 737.89 392.57 724.65 380.3 711.26 368 698.13 355.76 685.65 343.66 674.18 331.78 664.01 320.19 655.4 308.96 648.48 298.12 643.32 287.72 639.92 277.78 638.16 268.29 637.85 259.25 638.75 242.59 642.91 226.97 647.54 212.55 649.33 198.46 647.58 191.46 644.13 184.39 639.04 177.19 632.34 169.81 624.12 162.24 614.55 154.42 603.85 146.36 592.33 138.03 580.31 129.44 568.13 120.6 556.14 121.1 545.93 120.87 535.72 119.92 525.51 118.37 515.3 116.36 505.09 114.11 494.89 111.84 484.68 109.8 474.47 108.19 464.26 107.17 454.05 106.86 443.84 107.28 433.63 108.4 423.42 110.09 413.21 112.18 403 114.46 392.79 116.69 382.59 118.64 372.38 120.11 362.17 120.95 351.96 121.07 341.75 120.46 331.54 119.18 321.33 117.37 311.12 115.21 300.91 112.92 290.71 110.74 280.5 108.9 270.29 107.58 260.08 106.92 249.87 111.99 234.05 126.44 227.39 136.15 226.12 146.12 224.44 156.31 222.17 166.72 219.2 177.31 215.43 188.02 210.8 198.83 205.3 209.66 198.99 220.46 191.92 231.16 184.21 241.7 176 252.03 167.46 262.07 158.76 271.78 150.09 281.12 141.6 290.04 133.48 298.53 125.85 306.57 118.82 321.13 107.22 334.5 97.76 346.4 91.37 357.83 86.19 375.45 79.13 381.54 76.61" stroke-dasharray="2 7" transform="rotate(0, 400, 400)" opacity="0.78"></path><path d="M387.95 89.57Q399.44 96.84 411.28 103.73 423.4 110.15 435.71 116 448.14 121.23 460.59 125.82 472.95 129.75 485.12 133.07 497.02 135.83 508.54 138.13 519.59 140.08 530.11 141.81 540.01 143.46 549.26 145.2 565.26 149.8 579.12 155.91 589.66 165.47 598.57 177.32 605.69 192.57 612.42 209.26 615.89 218.09 619.61 226.91 623.72 235.56 628.34 243.85 633.59 251.62 639.56 258.73 637.71 268.99 639.43 279.26 644.53 289.53 652.54 299.79 662.7 310.06 674.02 320.32 685.44 330.59 695.87 340.85 704.3 351.12 709.93 361.38 712.24 371.65 710.99 381.91 706.3 392.18 698.63 402.45 688.71 412.71 677.48 422.98 666.01 433.24 655.39 443.51 646.65 453.77 640.61 464.04 637.85 474.31 638.64 484.57 642.89 494.84 650.21 505.1 659.89 515.37 671.01 525.63 682.51 535.9 693.3 546.17 702.34 556.43 708.77 566.7 706.56 583.03 689.84 589.75 677.83 589.37 665.23 588.21 652.14 586.53 638.68 584.63 624.99 582.83 611.19 581.45 597.41 580.78 583.78 581.1 570.41 582.63 557.42 585.54 544.91 589.94 532.95 595.88 521.62 603.33 510.96 612.19 500.99 622.29 491.75 633.41 483.21 645.28 475.36 657.59 468.15 669.99 461.54 682.14 455.45 693.72 449.8 704.39 444.51 713.91 439.48 722.03 422.33 735.67 409.41 737.61 397.43 725.52 385.43 712.91 373.51 700.13 361.75 687.55 350.23 675.51 339 664.33 328.12 654.29 317.64 645.6 307.58 638.44 297.97 632.87 280.29 627.22 263.87 625.74 249.2 628.98 235.3 633.26 222.08 636.04 208.93 636.17 195.32 629.87 181.18 619.18 173.72 611.34 166 602.27 158.03 592.16 149.79 581.26 141.3 569.85 132.57 558.24 132.64 548.33 131.98 538.41 130.65 528.49 128.77 518.57 126.54 508.66 124.16 498.74 121.86 488.82 119.85 478.9 118.34 468.99 117.46 459.07 117.3 449.15 117.87 439.24 119.12 429.32 120.93 419.4 123.12 409.48 125.5 399.57 127.82 389.65 129.88 379.73 131.47 369.82 132.44 359.9 132.69 349.98 132.22 340.06 131.05 330.15 129.31 320.23 127.15 310.31 124.78 300.4 122.44 290.48 120.34 280.56 118.68 270.64 117.62 260.73 121.78 245.39 135.17 238.78 144.3 237.19 153.69 235.03 163.33 232.19 173.2 228.58 183.29 224.17 193.57 218.93 203.99 212.9 214.52 206.15 225.09 198.78 235.66 190.9 246.17 182.66 256.55 174.22 266.75 165.75 276.71 157.41 286.37 149.34 295.7 141.69 304.65 134.57 313.18 128.07 321.29 122.24 328.96 117.11 342.8 109.16 355.48 102.91 366.67 98.46 377.37 94.32 385.28 90.83 387.95 89.57" stroke-dasharray="3 4" transform="rotate(4.04, 400, 400)" opacity="0.17"></path><path d="M396.23 102.53Q407.8 109.59 419.52 116.3 431.29 122.55 443.05 128.27 454.71 133.41 466.18 137.94 477.38 141.84 488.23 145.15 498.65 147.91 508.59 150.19 526.47 153.67 542.51 156.76 555.39 160.56 566.47 165.59 575.07 173.63 582.63 183.82 589.42 197.47 596.41 212.82 600.3 221.2 604.58 229.76 609.36 238.34 614.73 246.77 620.78 254.9 627.56 262.57 627.9 272.38 631.42 282.18 637.8 291.99 646.49 301.79 656.72 311.6 667.59 321.4 678.14 331.21 687.45 341.01 694.69 350.82 699.24 360.62 700.68 370.43 698.9 380.23 694.04 390.04 686.54 399.84 677.06 409.65 666.43 419.45 655.59 429.26 645.48 439.06 637 448.87 630.9 458.67 627.71 468.47 627.71 478.28 630.9 488.08 637.01 497.89 645.49 507.69 655.59 517.5 666.44 527.3 677.07 537.11 686.55 546.91 694.05 556.71 695.28 571.63 681.88 576.28 671.37 575.14 660.21 573.57 648.47 571.84 636.24 570.23 623.64 569 610.77 568.42 597.73 568.73 584.65 570.11 571.63 572.74 558.77 576.72 546.18 582.08 533.95 588.83 522.16 596.9 510.87 606.15 500.14 616.4 490 627.44 480.5 639 471.62 650.81 463.38 662.55 455.75 673.93 448.69 684.67 442.16 694.5 430.63 709.87 420.1 720.98 410.43 724.76 400.78 724.65 389.24 713.15 377.88 701.15 366.78 688.98 355.98 676.95 345.53 665.37 335.48 654.51 325.85 644.63 316.65 635.94 307.88 628.59 299.55 622.68 284.26 615.91 270.02 613.13 257.06 615.29 244.56 618.96 232.25 622.31 219.73 623.83 206.44 620.2 192.5 612.69 185.09 606.6 177.42 599.23 169.49 590.73 161.32 581.25 152.91 571.02 144.29 560.26 143.89 550.64 142.79 541.02 141.09 531.4 138.95 521.79 136.54 512.17 134.08 502.55 131.79 492.93 129.87 483.32 128.49 473.7 127.77 464.08 127.77 454.46 128.49 444.85 129.87 435.23 131.79 425.61 134.08 415.99 136.54 406.37 138.94 396.76 141.09 387.14 142.79 377.52 143.89 367.9 144.29 358.29 143.97 348.67 142.94 339.05 141.3 329.43 139.19 319.81 136.8 310.2 134.34 300.58 132.02 290.96 130.05 281.34 128.61 271.72 131.8 256.73 144.07 249.8 152.59 247.69 161.36 244.92 170.38 241.42 179.66 237.15 189.17 232.1 198.91 226.31 208.84 219.82 218.93 212.74 229.15 205.16 239.44 197.21 249.76 189.05 260.05 180.81 270.25 172.65 280.32 164.71 290.19 157.11 299.82 149.98 309.15 143.4 318.15 137.43 326.77 132.12 334.99 127.48 349.95 120.32 363.65 114.72 389.8 105.16 396.23 102.53" stroke-dasharray="9 9" transform="rotate(8.08, 400, 400)" opacity="0.48"></path><path d="M405.1 115.5Q416.23 122.34 427.29 128.86 438.23 134.94 448.97 140.53 459.44 145.58 469.58 150.04 479.33 153.92 488.63 157.22 505.44 162.06 520.6 165.74 540.65 170.94 552.5 175.69 565.06 189.32 573.76 202.49 581.78 216.79 591.01 232.41 596.52 240.69 602.66 249.01 609.48 257.24 617.02 265.22 619.3 274.55 624.3 283.88 631.62 293.2 640.67 302.53 650.72 311.86 660.95 321.19 670.54 330.51 678.71 339.84 684.8 349.17 688.32 358.49 688.98 367.82 686.74 377.15 681.77 386.48 674.47 395.8 665.43 405.13 655.39 414.46 645.16 423.79 635.56 433.11 627.37 442.44 621.25 451.77 617.7 461.09 617 470.42 619.21 479.75 624.15 489.07 631.42 498.4 640.44 507.73 650.47 517.06 660.71 526.38 670.32 535.71 678.53 545.04 672.99 559.61 653.61 558.93 643.3 557.51 632.44 556.47 621.1 556.04 609.38 556.41 597.35 557.76 585.11 560.23 572.76 563.91 560.39 568.85 548.1 575.05 535.97 582.45 524.08 590.97 512.52 600.44 501.35 610.7 490.62 621.53 480.39 632.68 470.69 643.9 461.53 654.94 452.94 665.53 444.9 675.43 437.4 684.43 424.14 698.37 412.18 708.4 401.82 711.79 392.02 711.69 381.41 700.75 371.13 689.37 361.2 677.8 351.66 666.33 342.54 655.21 333.84 644.71 325.56 635.04 317.69 626.39 310.22 618.92 303.11 612.73 290 604.95 277.64 600.93 266.03 601.92 254.56 604.76 242.82 608.27 230.67 610.71 217.5 609.28 203.6 604.6 196.2 600.17 188.55 594.53 180.65 587.73 172.52 579.86 164.19 571.08 155.68 561.55 154.8 552.24 153.28 542.94 151.26 533.64 148.89 524.33 146.36 515.03 143.89 505.73 141.67 496.43 139.87 487.12 138.65 477.82 138.11 468.52 138.28 459.21 139.16 449.91 140.67 440.61 142.69 431.3 145.05 422 147.58 412.7 150.05 403.4 152.28 394.09 154.08 384.79 155.31 375.49 155.86 366.18 155.7 356.88 154.83 347.58 153.33 338.27 151.31 328.97 148.95 319.67 146.42 310.36 143.95 301.06 141.72 291.76 139.91 282.45 142.13 267.71 153.25 260.15 161.14 257.39 169.26 253.93 177.62 249.74 186.24 244.83 195.11 239.21 204.22 232.94 213.57 226.1 223.11 218.79 232.83 211.13 242.7 203.24 252.67 195.25 262.7 187.31 272.74 179.53 282.75 172.05 292.66 164.98 302.43 158.39 312.01 152.36 321.34 146.94 330.39 142.14 339.12 137.97 355.26 131.59 370.2 126.6 383.09 122.99 394.83 119.56 402.6 116.58 405.1 115.5" stroke-dasharray="6 0" transform="rotate(12.12, 400, 400)" opacity="0.53"></path><path d="M413.18 128.45Q433.36 141.39 452.47 152.76 470.11 162.11 485.97 169.25 499.88 174.32 511.82 177.78 521.91 180.33 530.46 182.83 537.9 186.18 544.76 191.2 551.68 198.49 559.3 208.35 568.24 220.71 579.06 235.12 592.18 250.84 607.87 266.9 617.92 284.59 634.96 302.27 654.05 319.96 669.63 337.64 677.19 355.33 674.52 373.01 662.4 390.69 644.35 408.38 625.62 426.06 611.64 443.75 606.49 461.43 611.65 479.11 625.62 496.8 644.35 514.48 661.81 539.75 645.33 544.74 627 543.67 606.6 545.58 584.62 551.5 561.64 561.91 538.31 576.68 515.25 595.02 493.04 615.63 472.18 636.86 453.01 656.93 435.74 674.2 420.43 687.39 406.97 695.79 395.11 699.35 384.51 698.73 366.26 677.58 349.61 655.69 334.56 634.93 320.99 616.96 308.68 603.02 297.29 593.77 286.47 589.19 275.82 588.6 264.98 590.8 253.62 594.18 241.48 597.02 228.41 597.72 214.33 594.99 199.26 588.06 183.32 576.77 166.68 561.57 163.44 543.63 158.62 525.69 153.61 507.76 149.87 489.82 148.49 471.88 149.87 453.94 153.61 436.01 158.62 418.07 163.44 400.13 166.68 382.19 167.39 364.25 165.37 346.32 161.21 328.38 156.1 310.44 151.55 292.5 148.86 274.56 162.81 269.56 177.51 261.92 193.12 251.57 209.72 238.85 227.28 224.38 245.7 209.03 264.77 193.76 284.21 179.48 303.68 166.93 322.81 156.59 341.21 148.58 358.54 142.73 374.52 138.53 388.98 135.29 407.51 130.32 413.18 128.45" stroke-dasharray="6 3" transform="rotate(16.16, 400, 400)" opacity="0.50"></path><path d="M419.2 141.41Q436.75 153.92 452.91 164.97 467.46 174.13 480.29 181.24 491.41 186.36 500.95 189.85 516.27 194.67 530.24 200.95 537.73 206.77 546.36 214.88 556.58 225.42 568.79 238.15 583.22 252.59 600 267.96 612.11 284.68 629.23 301.39 646.82 318.1 660.21 334.82 665.85 351.53 662.24 368.24 650.35 384.95 633.31 401.67 615.67 418.38 602.09 435.09 596.18 451.8 599.5 468.52 611.19 485.23 628.12 501.94 647.22 525.78 635.35 531.38 619.8 532.07 602.15 536.03 582.72 543.91 561.93 555.83 540.28 571.41 518.31 589.78 496.54 609.68 475.47 629.64 455.53 648.13 437.01 663.8 420.13 675.65 404.95 683.15 391.43 686.33 379.4 685.77 364.09 665.77 350.29 645.03 337.85 625.16 326.53 607.62 316.05 593.54 306.04 583.59 296.17 577.91 286.08 576.08 275.49 577.18 264.16 579.96 251.93 582.96 238.72 584.72 224.53 583.98 209.45 579.82 193.62 571.76 177.24 559.86 173.27 542.64 168.16 525.41 163.26 508.19 159.89 490.97 158.93 473.75 160.64 456.52 164.56 439.3 169.65 422.08 174.57 404.86 178.01 387.63 179.05 370.41 177.42 353.19 173.55 335.96 168.47 318.74 163.53 301.52 160.03 284.29 172.82 277.82 186.24 268.8 200.45 257.4 215.59 244.09 231.69 229.57 248.73 214.67 266.58 200.24 285.06 187.04 303.9 175.65 322.78 166.4 341.37 159.33 359.32 154.19 376.3 150.51 392.06 147.64 412.79 143.13 419.2 141.41" stroke-dasharray="2 9" transform="rotate(20.200000000000003, 400, 400)" opacity="0.79"></path><path d="M422.24 154.37Q436.87 166.43 450.06 177.14 461.74 186.13 471.96 193.19 488.36 201.35 502.62 206.2 509.49 208.27 516.93 211.23 525.36 215.71 535.18 222.18 546.71 230.87 560.18 241.77 575.7 254.59 593.23 268.8 606.69 284.55 623.36 300.31 639.22 316.06 650.44 331.81 654.32 347.57 649.92 363.32 638.3 379.08 622.27 394.83 605.7 410.58 592.56 426.34 586.05 442.09 587.72 457.85 597.17 473.6 612.13 489.35 631.83 512.15 623.74 519.19 610.78 521.84 595.84 527.81 579.08 537.41 560.76 550.5 541.25 566.55 520.95 584.65 500.32 603.63 479.8 622.2 459.8 639.1 440.69 653.23 422.76 663.82 406.21 670.48 391.12 673.3 377.5 672.81 365.06 653.94 353.83 634.34 343.58 615.39 334.01 598.36 324.82 584.26 315.68 573.77 306.29 567.11 296.38 564.06 285.75 564 274.25 565.95 261.79 568.72 248.39 571.05 234.1 571.77 219.05 569.88 203.4 564.75 187.35 556.1 182.78 539.64 177.54 523.18 172.89 506.72 169.95 490.26 169.43 473.81 171.45 457.35 175.54 440.89 180.69 424.43 185.68 407.97 189.29 391.51 190.66 375.05 189.45 358.59 185.96 342.13 181.03 325.67 175.85 309.22 171.66 292.76 183.35 284.8 195.53 274.57 208.37 262.37 222.03 248.78 236.59 234.49 252.09 220.26 268.49 206.81 285.68 194.77 303.48 184.56 321.67 176.39 339.95 170.21 358.02 165.76 375.56 162.56 392.28 160.03 415.07 155.94 422.24 154.37" stroke-dasharray="4 10" transform="rotate(24.24, 400, 400)" opacity="0.43"></path><path d="M421.82 167.33Q433.62 178.93 444.14 189.3 453.44 198.08 461.69 205.09 475.9 213.37 489.55 218.15 496.96 219.8 505.28 221.99 514.84 225.32 525.89 230.28 538.63 237.19 553.14 246.18 569.43 257.17 587.37 269.82 601.49 284.64 617.24 299.46 631.2 314.28 640.31 329.1 642.59 343.92 637.55 358.74 626.27 373.56 611.23 388.38 595.71 403.2 583.08 418.02 576.1 432.84 576.29 447.66 583.62 462.48 596.48 477.3 615.83 499.37 610.65 508.45 600.01 513.08 587.6 520.89 573.47 531.91 557.74 545.81 540.65 561.97 522.47 579.52 503.55 597.41 484.26 614.53 464.96 629.84 446 642.5 427.71 651.89 410.35 657.78 394.1 660.27 379.09 659.85 369.12 642.09 359.95 623.63 351.3 605.63 342.88 589.18 334.42 575.18 325.64 564.28 316.32 556.77 306.28 552.6 295.39 551.34 283.58 552.3 270.86 554.52 257.28 556.98 242.94 558.6 228 558.45 212.62 555.78 196.99 550.12 192.01 534.48 186.81 518.83 182.51 503.18 180.06 487.53 180 471.89 182.33 456.24 186.55 440.59 191.73 424.94 196.76 409.3 200.52 393.65 202.2 378 201.44 362.35 198.4 346.7 193.74 331.06 188.48 315.41 183.76 299.76 194.44 290.47 205.46 279.27 216.99 266.6 229.19 253.04 242.2 239.25 256.08 225.89 270.86 213.56 286.51 202.73 302.94 193.7 319.99 186.57 337.45 181.24 355.09 177.42 372.62 174.67 389.77 172.45 414.04 168.76 421.82 167.33" stroke-dasharray="9 5" transform="rotate(28.28, 400, 400)" opacity="0.32"></path><path d="M418.01 180.29Q427.38 191.42 435.78 201.42 443.38 209.98 450.38 216.92 463.78 225.36 477.95 230.21 486.23 231.59 495.62 233.19 506.33 235.57 518.51 239.2 532.23 244.46 547.48 251.59 564.19 260.62 582.18 271.44 596.31 285.36 610.77 299.28 622.73 313.2 629.83 327.12 630.69 341.04 625.14 354.96 614.27 368.88 600.2 382.8 585.7 396.72 573.62 410.64 566.31 424.56 565.22 438.49 570.55 452.41 581.27 466.33 595.27 480.25 609.8 494.17 603.62 495.56 596.3 499.33 587.64 505.85 577.49 515.22 565.82 527.29 552.64 541.63 538.07 557.58 522.27 574.33 505.48 590.98 487.97 606.59 470.03 620.36 451.96 631.6 434.06 639.89 416.61 645.05 399.83 647.25 383.93 646.89 375.8 630.23 368.01 612.9 360.3 595.86 352.43 580.06 344.17 566.28 335.33 555.12 325.76 546.92 315.36 541.72 304.09 539.3 291.94 539.15 278.98 540.59 265.3 542.76 251.01 544.78 236.29 545.79 221.3 545.04 206.21 541.94 201.01 527.15 196 512.35 192.17 497.55 190.26 482.76 190.65 467.96 193.26 453.17 197.59 438.37 202.77 423.58 207.81 408.78 211.7 393.99 213.68 379.19 213.37 364.4 210.83 349.6 206.56 334.81 201.38 320.01 196.33 305.22 206.1 294.85 216.06 283.02 226.37 270.22 237.2 257.01 248.69 243.98 260.95 231.66 274.04 220.53 287.99 210.94 302.78 203.07 318.34 196.94 334.53 192.41 351.19 189.17 368.1 186.83 385.05 184.91 409.89 181.59 418.01 180.29" stroke-dasharray="10 9" transform="rotate(32.32, 400, 400)" opacity="0.98"></path><path d="M411.39 193.26Q418.96 203.9 425.96 213.52 432.58 221.84 439.06 228.7 452.81 237.32 468.3 242.34 477.61 243.58 488.09 244.78 499.84 246.41 512.92 248.93 527.32 252.74 542.97 258.11 559.73 265.2 577.41 274.03 590.98 287.09 603.86 300.15 613.78 313.21 619 326.27 618.62 339.33 612.7 352.4 602.27 365.46 589.16 378.52 575.68 391.58 564.17 404.64 556.67 417.7 554.48 430.76 557.99 443.82 566.58 456.88 578.75 469.95 592.37 483.01 587.05 486.28 580.97 491.93 573.9 500.08 565.67 510.67 556.18 523.4 545.37 537.8 533.27 553.24 519.93 568.98 505.51 584.28 490.15 598.37 474.08 610.62 457.52 620.53 440.73 627.78 423.93 632.29 407.38 634.22 391.28 633.92 384.24 618.34 377.12 602.12 369.72 586.07 361.85 570.98 353.37 557.53 344.15 546.26 334.12 537.51 323.27 531.43 311.6 527.91 299.17 526.63 286.06 527.09 272.4 528.67 258.31 530.63 243.96 532.25 229.48 532.81 215.04 531.73 209.83 517.81 205.18 503.9 201.89 489.99 200.55 476.08 201.39 462.17 204.26 448.26 208.66 434.35 213.81 420.44 218.83 406.53 222.81 392.63 225.08 378.72 225.23 364.81 223.23 350.9 219.43 336.99 214.51 323.08 209.32 309.17 218.29 298.07 227.32 286 236.55 273.43 246.13 260.87 256.2 248.81 266.89 237.67 278.3 227.81 290.5 219.46 303.5 212.72 317.32 207.53 331.88 203.73 347.1 201.03 362.84 199.06 378.93 197.4 403.29 194.43 411.39 193.26" stroke-dasharray="5 8" transform="rotate(36.36, 400, 400)" opacity="0.13"></path><path d="M403 206.22Q409.51 216.35 415.84 225.58 422.19 233.65 428.76 240.4 435.73 245.76 443.32 249.79 451.67 252.61 460.95 254.48 471.27 255.7 482.69 256.66 495.24 257.77 508.92 259.42 523.65 262 539.31 265.81 555.76 271.07 572.79 277.91 585.33 290.15 596.42 302.4 604.34 314.64 607.84 326.88 606.4 339.12 600.23 351.36 590.28 363.6 578.12 375.85 565.63 388.09 554.75 400.33 547.17 412.57 544.07 424.81 545.94 437.06 552.49 449.3 562.68 461.54 574.95 473.78 570.17 478.91 564.96 486.22 559.1 495.68 552.41 507.08 544.75 520.08 536.02 534.19 526.18 548.84 515.22 563.42 503.19 577.28 490.17 589.86 476.29 600.66 461.71 609.31 446.59 615.61 431.13 619.52 415.52 621.2 399.97 620.96 393.29 606.44 386.21 591.32 378.6 576.28 370.33 561.94 361.34 548.92 351.58 537.68 341.04 528.56 329.75 521.74 317.77 517.22 305.18 514.83 292.09 514.23 278.61 514.97 264.89 516.49 251.05 518.2 237.23 519.49 223.56 519.8 218.55 506.79 214.39 493.79 211.72 480.79 210.96 467.79 212.22 454.78 215.32 441.78 219.76 428.78 224.85 415.77 229.82 402.77 233.87 389.77 236.39 376.77 236.98 363.76 235.55 350.76 232.32 337.76 227.79 324.76 222.68 311.76 230.97 300.34 239.2 288.43 247.49 276.43 255.97 264.78 264.78 253.87 274.04 244.01 283.87 235.44 294.34 228.31 305.54 222.63 317.49 218.32 330.2 215.2 343.65 212.98 357.77 211.34 372.46 209.91 395.29 207.27 403 206.22" stroke-dasharray="9 5" transform="rotate(40.400000000000006, 400, 400)" opacity="0.50"></path><path d="M394.15 219.18Q400.3 228.8 406.62 237.61 413.25 245.4 420.35 252.02 428.07 257.39 436.52 261.54 445.8 264.54 456 266.58 467.14 267.89 479.25 268.77 492.29 269.55 506.19 270.58 520.87 272.19 536.18 274.69 551.97 278.34 568.07 283.3 579.21 294.76 588.4 306.22 594.39 317.68 596.36 329.14 594.03 340.61 587.73 352.07 578.32 363.53 567.08 374.99 555.56 386.45 545.33 397.91 537.79 409.37 533.97 420.84 534.4 432.3 539.02 443.76 547.2 455.22 557.81 466.68 553.3 473.46 548.62 482.09 543.6 492.44 538.06 504.24 531.84 517.12 524.83 530.63 516.94 544.27 508.12 557.54 498.35 569.94 487.65 581.03 476.08 590.45 463.7 597.93 450.64 603.36 437.02 606.72 422.98 608.18 408.67 608 401.74 594.52 394.23 580.49 386.05 566.45 377.17 552.93 367.57 540.43 357.25 529.35 346.27 520.02 334.67 512.63 322.55 507.25 309.99 503.82 297.1 502.13 284.02 501.88 270.84 502.68 257.68 504.06 244.66 505.53 231.86 506.6 227.25 494.52 223.7 482.43 221.69 470.35 221.51 458.26 223.16 446.17 226.44 434.09 230.88 422 235.89 409.92 240.78 397.83 244.87 385.75 247.6 373.66 248.61 361.58 247.76 349.49 245.16 337.41 241.16 325.32 236.32 313.24 244.05 301.95 251.62 290.57 259.13 279.45 266.69 268.93 274.42 259.29 282.43 250.76 290.83 243.49 299.72 237.52 309.18 232.84 319.29 229.33 330.09 226.81 341.6 225.02 353.81 223.68 366.68 222.46 387.16 220.12 394.15 219.18" stroke-dasharray="7 2" transform="rotate(44.44, 400, 400)" opacity="0.39"></path><path d="M386.21 232.14Q392.58 241.23 399.35 249.6 406.63 257.09 414.5 263.55 423.06 268.91 432.36 273.16 442.45 276.34 453.34 278.59 465.03 280.06 477.48 280.99 490.62 281.63 504.37 282.27 518.62 283.2 533.23 284.68 548.08 286.98 562.99 290.3 572.47 301.01 579.74 311.72 583.95 322.44 584.57 333.15 581.54 343.87 575.23 354.58 566.37 365.3 556.04 376.01 545.47 386.73 535.91 397.44 528.51 408.16 524.16 418.87 523.37 429.59 526.24 440.3 532.42 451.02 541.18 461.73 536.71 469.8 532.3 479.35 527.79 490.15 523.01 501.92 517.84 514.32 512.15 526.96 505.83 539.42 498.81 551.31 491.03 562.24 482.46 571.89 473.1 580 462.98 586.4 452.13 591.03 440.63 593.91 428.56 595.17 416.02 595.04 408.46 582.59 400.25 569.63 391.38 556.6 381.85 543.94 371.7 532.03 360.96 521.25 349.71 511.86 338.02 504.08 325.99 498.01 313.69 493.66 301.25 490.92 288.75 489.63 276.3 489.5 263.98 490.22 251.88 491.41 240.06 492.67 236.01 481.5 233.16 470.33 231.83 459.16 232.2 447.99 234.21 436.82 237.63 425.65 242.04 414.48 246.93 403.31 251.71 392.14 255.8 380.97 258.71 369.8 260.11 358.63 259.82 347.47 257.88 336.3 254.52 325.13 250.14 313.96 257.42 303.22 264.46 292.72 271.35 282.73 278.17 273.49 285.02 265.2 291.99 258.01 299.18 251.98 306.69 247.11 314.6 243.35 323.01 240.56 331.97 238.57 341.54 237.15 351.74 236.07 362.6 235.04 380.15 232.97 386.21 232.14" stroke-dasharray="10 4" transform="rotate(48.48, 400, 400)" opacity="0.72"></path><path d="M380.41 245.1Q387.37 253.64 394.84 261.56 402.88 268.72 411.53 274.99 420.83 280.29 430.8 284.62 441.43 287.98 452.69 290.44 464.55 292.14 476.94 293.23 489.8 293.89 503.02 294.36 516.5 294.87 530.13 295.64 543.79 296.92 557.33 298.89 565.01 308.88 570.42 318.88 573 328.87 572.49 338.86 568.94 348.86 562.71 358.85 554.45 368.84 545 378.84 535.35 388.83 526.49 398.82 519.33 408.81 514.61 418.81 512.82 428.8 514.14 438.8 518.43 448.79 525.26 458.78 520.69 467.72 516.33 477.7 512.05 488.52 507.73 499.89 503.23 511.5 498.46 523.05 493.31 534.2 487.69 544.66 481.52 554.14 474.76 562.42 467.37 569.32 459.32 574.74 450.62 578.64 441.29 581.08 431.36 582.16 420.88 582.08 412.55 570.64 403.62 558.74 394.13 546.73 384.11 534.95 373.61 523.72 362.71 513.35 351.46 504.07 339.96 496.07 328.28 489.49 316.5 484.37 304.73 480.69 293.02 478.37 281.46 477.23 270.12 477.07 251.99 472.97 242.82 458.06 242.18 447.79 243.06 437.52 245.37 427.26 248.89 416.99 253.24 406.73 257.97 396.46 262.6 386.19 266.66 375.93 269.72 365.66 271.46 355.4 271.71 345.13 270.44 334.87 267.79 324.6 264.02 314.33 270.93 304.52 277.57 295.16 283.98 286.47 290.23 278.61 302.59 266.32 315.17 257.08 328.92 252.3 343.84 249.37 352.13 248.5 360.97 247.64 375.4 245.83 380.41 245.1" stroke-dasharray="10 1" transform="rotate(52.52, 400, 400)" opacity="0.25"></path><path d="M377.65 258.06Q385.31 266.04 393.49 273.49 402.19 280.29 411.44 286.33 421.23 291.55 431.53 295.91 442.33 299.42 453.57 302.11 465.2 304.06 477.15 305.37 489.35 306.19 501.72 306.68 514.15 307.01 526.56 307.37 538.85 307.96 550.91 308.95 556.75 318.24 560.42 327.53 561.59 336.81 560.15 346.1 556.23 355.39 550.18 364.68 542.54 373.97 533.96 383.25 525.21 392.54 517.06 401.83 510.22 411.12 505.3 420.4 502.73 429.69 502.73 438.98 505.3 448.27 510.23 457.55 505.47 466.86 501.01 476.82 496.76 487.24 492.62 497.86 488.5 508.45 484.29 518.75 479.91 528.52 475.28 537.54 464.74 552.01 452.88 562.93 438.48 567.67 422.49 569.13 413.5 558.66 404.05 547.8 394.19 536.81 383.97 525.94 373.44 515.46 362.68 505.6 351.76 496.57 340.74 488.55 329.69 481.65 318.69 475.95 307.79 471.48 297.05 468.22 286.53 466.07 276.27 464.93 260.2 460.08 252.75 446.17 252.75 436.79 254.09 427.41 256.65 418.02 260.21 408.64 264.45 399.26 269.01 389.88 273.47 380.49 277.45 371.11 280.6 361.73 282.64 352.35 283.39 342.96 282.78 333.58 280.87 324.2 277.83 314.82 284.44 306.2 290.76 298.19 302.58 284.89 313.9 274.2 324.99 267.82 336.33 263.63 348.76 261.74 362.23 260.27 373.67 258.7 377.65 258.06" stroke-dasharray="5 11" transform="rotate(56.56, 400, 400)" opacity="0.32"></path><path d="M378.37 271.03Q395.28 285.39 413.88 297.57 434.02 307.02 455.39 313.52 477.57 317.32 500.04 319.04 522.23 319.63 543.57 320.23 549.74 337.4 547.56 354.58 537.66 371.75 522.92 388.92 507.62 406.1 496.2 423.27 491.99 440.44 496.2 457.62 486.61 476.33 478.12 495.6 470.17 513.93 462.2 529.92 453.67 542.48 444.11 550.98 433.16 555.36 420.6 556.16 401.65 536.83 381.74 516.91 361.29 497.98 340.76 481.46 320.58 468.37 301.11 459.25 282.62 454.07 265.31 452.23 262.99 435.19 265.31 418.14 271.61 401.1 280.05 384.05 288.18 367 293.64 349.96 294.84 332.91 291.44 315.86 303.87 302.06 315.22 291.11 325.71 283.23 335.67 278.22 345.49 275.47 355.58 274.06 372.39 271.98 378.37 271.03" stroke-dasharray="2 3" transform="rotate(60.599999999999994, 400, 400)" opacity="0.58"></path><path d="M382.45 283.98Q399.75 297.24 418.2 308.7 437.55 317.91 457.49 324.63 477.63 328.95 497.58 331.24 516.9 332.1 535.19 332.35 538.4 348.12 534.76 363.89 525.15 379.66 511.88 395.43 498.16 411.2 487.29 426.96 481.9 442.73 483.28 458.5 473.33 475.85 464.59 492.88 456.67 508.51 449.16 521.79 441.66 532.04 433.77 538.92 425.15 542.49 415.51 543.2 396.92 525.83 378 507.86 359.08 490.47 340.51 474.76 322.57 461.58 305.47 451.49 289.39 444.69 274.39 440.96 273.58 425.58 276.73 410.19 283.08 394.81 291.09 379.42 298.83 364.03 304.44 348.65 306.57 333.26 304.7 317.87 316.66 306.98 327.6 298.66 337.62 292.89 346.9 289.36 355.71 287.48 364.34 286.51 377.8 284.8 382.45 283.98" stroke-dasharray="10 8" transform="rotate(64.64, 400, 400)" opacity="0.21"></path><path d="M389.26 296.94Q406.1 309.05 423.54 319.72 441.33 328.58 459.2 335.41 476.86 340.19 494.01 343.1 510.38 344.5 525.72 344.92 526.44 359.26 521.78 373.59 512.65 387.93 500.85 402.27 488.68 416.61 478.53 430.94 472.4 445.28 471.48 459.62 461.32 474.98 452.31 489.48 444.22 502.39 436.8 513.12 422.69 525.45 408.01 530.24 390.68 514.78 373.5 498.76 356.69 483.02 340.48 468.37 325.01 455.5 310.41 444.91 296.74 436.88 284 431.46 284.56 417.68 288.35 403.89 294.61 390.11 302.13 376.33 309.42 362.55 315.05 348.77 317.93 334.99 317.49 321.21 328.98 313.11 339.55 307.15 349.24 303.19 358.14 300.86 381.65 297.97 389.26 296.94" stroke-dasharray="4 0" transform="rotate(68.68, 400, 400)" opacity="0.36"></path><path d="M397.74 309.9Q413.26 320.83 428.91 330.63 444.52 339.01 459.89 345.8 474.81 350.92 489.09 354.43 508.24 363.42 508.64 383.2 500.17 396.07 489.81 408.94 479.16 421.82 469.89 434.69 463.44 447.56 460.8 460.43 450.65 473.39 441.5 485.22 433.24 495.51 425.71 503.91 412.22 513.48 399.26 517.28 383.97 503.7 369.11 489.62 354.81 475.6 341.18 462.24 328.28 450.04 316.17 439.41 304.83 430.66 294.24 423.93 295.96 411.7 300.17 399.48 306.22 387.25 313.17 375.02 319.93 362.8 325.46 350.57 328.89 338.35 329.69 326.12 340.62 320.53 350.79 316.59 368.51 313.04 384.22 311.62 394.44 310.48 397.74 309.9" stroke-dasharray="7 6" transform="rotate(72.72, 400, 400)" opacity="0.72"></path><path d="M406.57 322.86Q420.05 332.56 433.37 341.42 446.41 349.21 459.05 355.79 471.17 361.08 482.66 365.07 497.14 374.34 495.37 392.22 487.71 403.58 478.77 414.94 469.62 426.31 461.34 437.67 454.94 449.04 451.17 460.4 441.32 470.75 432.27 479.97 423.96 487.82 416.34 494.16 402.93 501.37 390.63 504.32 377.9 492.58 365.69 480.41 354.07 468.18 343.06 456.28 332.69 445.08 322.94 434.88 313.78 425.94 305.19 418.43 307.78 407.72 312.2 397.01 317.9 386.3 324.21 375.59 330.37 364.89 335.65 354.18 339.42 343.47 341.22 332.77 351.46 329.27 361.11 326.92 378.27 325 393.63 324.26 403.45 323.34 406.57 322.86" stroke-dasharray="9 10" transform="rotate(76.76, 400, 400)" opacity="1.00"></path><path d="M414.38 335.82Q425.36 344.26 436.06 352.09 446.4 359.16 456.31 365.36 465.74 370.62 474.65 374.9 485.16 384.3 482 400.21 475.27 410.02 467.72 419.83 460.03 429.64 452.85 439.45 446.83 449.26 442.5 459.06 433.27 466.84 424.61 473.63 409.25 483.32 395.4 489.63 389.25 490.94 383.45 491.36 373.48 481.42 364 471.13 355 460.72 346.49 450.43 338.45 440.5 330.87 431.14 323.69 422.54 316.89 414.85 320.04 405.64 324.42 396.43 329.64 387.21 335.24 378 340.73 368.79 345.63 359.58 355.44 344.81 370.32 338.08 386.66 337.26 401.57 336.95 411.29 336.2 414.38 335.82" stroke-dasharray="4 8" transform="rotate(80.80000000000001, 400, 400)" opacity="0.10"></path><path d="M419.95 348.79Q436.36 362.64 451.47 374.48 465.11 383.79 477.19 390.35 468.57 406.78 456.69 423.21 444.39 439.64 434.65 456.07 418.45 466.16 403.78 473.15 390.62 477.09 378.84 478.39 364.59 461.77 351.7 444.62 340.03 428.01 329.37 412.96 336.84 397.51 346.28 382.06 355.41 366.61 362.02 351.16 378.32 349.94 393.51 349.75 413.68 349.23 419.95 348.79" stroke-dasharray="1 10" transform="rotate(84.84, 400, 400)" opacity="0.11"></path><path d="M422.42 361.75Q433.93 373.07 444.52 383.15 454.16 391.7 462.85 398.5 455.11 411.68 445.65 424.86 435.93 438.03 427.46 451.21 413.6 457.56 400.63 461.94 388.61 464.48 377.52 465.43 367.75 452.33 358.76 438.76 350.42 425.26 342.6 412.39 349.45 399.93 357.32 387.46 364.98 375 371.25 362.53 385.05 362.34 398.27 362.48 416.59 362.09 422.42 361.75" stroke-dasharray="3 3" transform="rotate(88.88, 400, 400)" opacity="0.70"></path><path d="M421.4 374.71Q428.78 383.38 435.65 391.39 441.83 406.67 434.61 424.62 427.43 434.5 420.75 444.39 409.8 447.88 399.29 450.33 389.25 451.82 379.7 452.47 373.48 442.79 367.59 432.79 361.96 422.67 356.53 412.68 362.24 403.24 368.36 393.8 374.37 384.36 379.72 374.93 390.58 375.12 401.19 375.28 416.44 374.96 421.4 374.71" stroke-dasharray="6 3" transform="rotate(92.92, 400, 400)" opacity="0.54"></path><path d="M417.05 387.67Q425.19 399.18 432.58 409.41 423.57 422.54 414.31 435.68 399.34 438.37 385.03 439.51 377.93 426.64 371.07 413.33 379.41 400.61 387.52 387.9 409.75 387.89 417.05 387.67" stroke-dasharray="10 5" transform="rotate(96.96, 400, 400)" opacity="0.56"></path></g></svg>