<svg xmlns="http://www.w3.org/2000/svg" version="1.1" xmlns:xlink="http://www.w3.org/1999/xlink" xmlns:svgjs="http://svgjs.dev/svgjs" viewBox="0 0 800 800"><defs><radialGradient id="ccclaymoji-grad-dark" r="93%" cx="20%" cy="20%">
      <stop offset="70%" stop-color="hsl(41, 100%, 67%)" stop-opacity="0"></stop>
      <stop offset="97%" stop-color="#c89924" stop-opacity="1"></stop>
    </radialGradient><radialGradient id="ccclaymoji-grad-light" r="65%" cx="28%" cy="20%">
    <stop offset="0%" stop-color="#fffd88" stop-opacity="0.75"></stop>
    <stop offset="100%" stop-color="hsl(41, 100%, 67%)" stop-opacity="0"></stop>
  </radialGradient><filter id="ccclaymoji-blur" x="-100%" y="-100%" width="400%" height="400%" filterUnits="objectBoundingBox" primitiveUnits="userSpaceOnUse" color-interpolation-filters="sRGB">
	<feGaussianBlur stdDeviation="30" x="0%" y="0%" width="100%" height="100%" in="SourceGraphic" edgeMode="none" result="blur"></feGaussianBlur></filter><filter id="inner-blur" x="-100%" y="-100%" width="400%" height="400%" filterUnits="objectBoundingBox" primitiveUnits="userSpaceOnUse" color-interpolation-filters="sRGB">
	<feGaussianBlur stdDeviation="2" x="0%" y="0%" width="100%" height="100%" in="SourceGraphic" edgeMode="none" result="blur"></feGaussianBlur></filter><filter id="eye-shadow" x="-100%" y="-100%" width="400%" height="400%" filterUnits="objectBoundingBox" primitiveUnits="userSpaceOnUse" color-interpolation-filters="sRGB">
	<feDropShadow stdDeviation="10" dx="10" dy="10" flood-color="#000000" flood-opacity="0.2" x="0%" y="0%" width="100%" height="100%" result="dropShadow"></feDropShadow>
</filter><linearGradient id="eye-light" x1="50%" y1="0%" x2="50%" y2="100%">
      <stop offset="0%" stop-color="#555555" stop-opacity="1"></stop>
      <stop offset="100%" stop-color="black" stop-opacity="0"></stop>
    </linearGradient><linearGradient id="mouth-light" x1="50%" y1="0%" x2="50%" y2="100%">
    <stop offset="0%" stop-color="#ff9667" stop-opacity="1"></stop>
    <stop offset="100%" stop-color="hsl(3, 100%, 51%)" stop-opacity="0"></stop>
  </linearGradient><filter id="mouth-shadow" x="-100%" y="-100%" width="400%" height="400%" filterUnits="objectBoundingBox" primitiveUnits="userSpaceOnUse" color-interpolation-filters="sRGB">
	<feDropShadow stdDeviation="10" dx="10" dy="10" flood-color="#c20000" flood-opacity="0.2" x="0%" y="0%" width="100%" height="100%" result="dropShadow"></feDropShadow>
</filter></defs><g stroke-linecap="round"><path d="M707.5 450.0000133257349C707.5 638.1386251855732 588.1386118598382 790.6536521397511 400 790.6536521397511C211.86221698113206 790.6536521397511 92.5 638.1386251855732 92.5 450.0000133257349C92.5 261.862230306867 211.86221698113206 109.34637451171875 400 109.34637451171875C588.1386118598382 109.34637451171875 707.5 261.862230306867 707.5 450.0000133257349Z " fill="#c89924" opacity="0.25" filter="url(#ccclaymoji-blur)"></path><path d="M707.5 399.99999478332C707.5 598.8587554670808 598.8587606837607 689.9786272619525 400 689.9786272619525C201.14211538461538 689.9786272619525 92.5 598.8587554670808 92.5 399.99999478332C92.5 201.14211016793536 201.14211538461538 110.0213623046875 400 110.0213623046875C598.8587606837607 110.0213623046875 707.5 201.14211016793536 707.5 399.99999478332Z " fill="hsl(41, 100%, 67%)"></path><path d="M707.5 399.99999478332C707.5 598.8587554670808 598.8587606837607 689.9786272619525 400 689.9786272619525C201.14211538461538 689.9786272619525 92.5 598.8587554670808 92.5 399.99999478332C92.5 201.14211016793536 201.14211538461538 110.0213623046875 400 110.0213623046875C598.8587606837607 110.0213623046875 707.5 201.14211016793536 707.5 399.99999478332Z " fill="url(#ccclaymoji-grad-dark)"></path><path d="M707.5 399.99999478332C707.5 598.8587554670808 598.8587606837607 689.9786272619525 400 689.9786272619525C201.14211538461538 689.9786272619525 92.5 598.8587554670808 92.5 399.99999478332C92.5 201.14211016793536 201.14211538461538 110.0213623046875 400 110.0213623046875C598.8587606837607 110.0213623046875 707.5 201.14211016793536 707.5 399.99999478332Z " fill="url(#ccclaymoji-grad-light)"></path><path d="M325 362.5Q375 412.5 375 362.5 " stroke-width="5" stroke="black" fill="none" filter="url(#eye-shadow)"></path><path d="M325 362.5Q375 412.5 375 362.5 " stroke-width="1.6666666666666667" stroke="url(#eye-light)" fill="none" filter="url(#inner-blur)"></path><path d="M425 362.5Q475 412.5 475 362.5 " stroke-width="5" stroke="black" fill="none" filter="url(#eye-shadow)"></path><path d="M425 362.5Q475 412.5 475 362.5 " stroke-width="1.6666666666666667" stroke="url(#eye-light)" fill="none" filter="url(#inner-blur)"></path><path d="M350 512.5Q400 562.5 450 512.5 " stroke-width="5" stroke="hsl(3, 100%, 51%)" fill="none" filter="url(#mouth-shadow)"></path><path d="M350 512.5Q400 562.5 450 512.5 " stroke-width="1.6666666666666667" stroke="url(#mouth-light)" fill="none" filter="url(#inner-blur)"></path></g></svg>