<svg xmlns="http://www.w3.org/2000/svg" version="1.1" xmlns:xlink="http://www.w3.org/1999/xlink" xmlns:svgjs="http://svgjs.dev/svgjs" viewBox="0 0 800 800"><defs><filter id="uuunion-blur" x="-100%" y="-100%" width="400%" height="400%" color-interpolation-filters="sRGB">
        <feGaussianBlur in="SourceGraphic" stdDeviation="22 22" result="blur"></feGaussianBlur>
        <feDropShadow stdDeviation="12.307692307692308" in="blur" dx="10" dy="10" flood-color="#784a79" flood-opacity="0.25" x="0%" y="0%" width="100%" height="100%"></feDropShadow>
      </filter><filter id="uuunion-blur2" x="-100%" y="-100%" width="400%" height="400%" color-interpolation-filters="sRGB">
        <feGaussianBlur in="SourceGraphic" stdDeviation="22 22" result="blur"></feGaussianBlur>
        <feDropShadow stdDeviation="12.307692307692308" in="blur" dx="-10" dy="-10" flood-color="#784a79" flood-opacity="0.25" x="0%" y="0%" width="100%" height="100%"></feDropShadow>
      </filter><linearGradient gradientTransform="rotate(310, 0.5, 0.5)" x1="50%" y1="0%" x2="50%" y2="100%" id="uuunion-grad"><stop stop-color="#ffffff" offset="10%"></stop><stop stop-color="#784a79" offset="90%"></stop></linearGradient><linearGradient gradientTransform="rotate(135, 0.5, 0.5)" x1="50%" y1="0%" x2="50%" y2="100%" id="uuunion-grad2"><stop stop-color="#ffffff" offset="25%"></stop><stop stop-color="#784a79" offset="100%"></stop></linearGradient><linearGradient gradientTransform="rotate(333, 0.5, 0.5)" x1="50%" y1="0%" x2="50%" y2="100%" id="uuunion-grad3"><stop stop-color="#ffffff" offset="0%"></stop><stop stop-color="#784a79" offset="75%"></stop></linearGradient></defs><path d="M-79.08 -84.06Q-64.41 -80.84 -49.74 -77.49 -35.06 -74.51 -20.39 -72.33 -5.72 -71.27 8.95 -71.48 23.62 -72.94 38.29 -75.43 52.97 -78.59 67.64 -81.95 82.31 -85.03 96.99 -87.37 111.66 -88.63 126.33 -88.63 141 -87.37 155.68 -85.03 170.35 -81.96 185.02 -78.6 199.7 -75.44 214.37 -72.95 229.04 -71.49 243.72 -71.27 258.39 -72.32 273.06 -74.5 287.74 -77.48 302.41 -80.83 317.08 -84.05 331.76 -86.69 346.43 -88.34 361.1 -88.78 375.77 -87.93 390.45 -85.92 405.12 -83.05 419.79 -79.73 434.47 -76.45 449.14 -73.69 463.81 -71.85 478.49 -71.2 493.16 -71.83 507.83 -73.66 522.51 -76.41 537.18 -79.69 551.85 -83.01 566.53 -85.89 581.2 -87.91 595.87 -88.78 610.54 -88.35 625.22 -86.71 639.89 -84.09 654.56 -80.87 669.24 -77.52 683.91 -74.53 698.58 -72.34 713.26 -71.27 727.93 -71.48 742.6 -72.92 757.28 -75.41 771.95 -78.56 786.62 -81.92 801.3 -85 815.97 -87.35 830.64 -88.63 845.31 -88.64 859.99 -87.39 856.31 -72.58 856.47 -57.77 860.45 -42.96 867.59 -28.15 876.75 -13.34 886.43 1.47 895.07 16.28 901.26 31.09 904.01 45.9 902.86 60.71 898.01 75.52 890.24 90.33 880.8 105.14 871.24 119.95 863.09 134.76 857.69 149.58 855.9 164.39 858.02 179.2 863.7 194.01 872.02 208.82 881.64 223.63 890.99 238.44 898.55 253.25 903.11 268.06 903.92 282.87 900.86 297.68 894.41 312.5 885.62 327.31 875.92 342.12 866.88 356.93 859.97 371.74 856.31 386.55 856.48 401.36 860.47 416.17 867.62 430.98 876.78 445.79 886.46 460.6 895.09 475.42 901.28 490.23 904.01 505.04 902.85 519.85 897.99 534.66 890.21 549.47 880.77 564.28 871.21 579.09 863.07 593.9 857.68 608.71 855.9 623.53 858.03 638.34 863.72 653.15 872.05 667.96 881.67 682.77 891.01 697.58 898.57 712.39 903.12 727.2 903.92 742.01 900.84 756.82 894.38 771.63 885.59 786.45 875.89 801.26 866.86 816.07 859.96 830.88 856.3 845.69 856.49 860.5 841.87 857.21 827.25 857.24 812.64 860.6 798.02 866.79 783.41 874.92 768.79 883.78 754.17 892.09 739.56 898.64 724.94 902.46 710.33 902.99 695.71 900.17 681.09 894.4 666.48 886.53 651.86 877.7 637.25 869.2 622.63 862.28 608.02 857.96 593.4 856.85 578.78 859.12 564.17 864.44 549.55 872.04 534.94 880.8 520.32 889.44 505.7 896.7 491.09 901.52 476.47 903.19 461.86 901.48 447.24 896.63 432.62 889.34 418.01 880.69 403.39 871.94 388.78 864.37 374.16 859.07 359.55 856.84 344.93 857.99 330.31 862.35 315.7 869.3 301.08 877.8 286.47 886.63 271.85 894.48 257.23 900.22 242.62 903.01 228 902.43 213.39 898.57 198.77 892 184.15 883.68 169.54 874.81 154.92 866.71 140.31 860.54 125.69 857.22 111.07 857.23 96.46 860.56 81.84 866.73 67.23 874.84 52.61 883.7 38 892.03 23.38 898.59 8.76 902.44 -5.84 903 -20.46 900.21 -35.07 894.46 -49.69 886.6 -64.31 877.77 -78.92 869.27 -78.91 854.38 -79.08 839.48 -79.4 824.58 -79.81 809.69 -80.25 794.79 -80.65 779.9 -80.95 765 -81.09 750.1 -81.05 735.21 -80.84 720.31 -80.5 705.42 -80.07 690.52 -79.63 675.62 -79.25 660.73 -78.99 645.83 -78.9 630.94 -78.98 616.04 -79.22 601.14 -79.59 586.25 -80.03 571.35 -80.46 556.46 -80.82 541.56 -81.04 526.66 -81.09 511.77 -80.97 496.87 -80.68 481.98 -80.29 467.08 -79.85 452.18 -79.43 437.29 -79.1 422.39 -78.92 407.5 -78.91 392.6 -79.08 377.7 -79.4 362.81 -79.81 347.91 -80.25 333.02 -80.65 318.12 -80.95 303.22 -81.09 288.33 -81.05 273.43 -80.84 258.54 -80.5 243.64 -80.07 228.74 -79.63 213.85 -79.25 198.95 -78.99 184.06 -78.9 169.16 -78.98 154.26 -79.22 139.37 -79.6 124.47 -80.03 109.58 -80.46 94.68 -80.82 79.78 -81.04 64.89 -81.09 49.99 -80.97 35.1 -80.68 20.2 -80.29 5.3 -79.85 -9.58 -79.43 -24.48 -79.1 -39.37 -78.92 -54.27 -78.91 -69.17 -79.08 -84.06" fill="url(#uuunion-grad)"></path><path d="M-79.08 -84.06Q-78.91 -69.17 -78.92 -54.27 -79.1 -39.37 -79.43 -24.48 -79.85 -9.58 -80.29 5.3 -80.68 20.2 -80.97 35.1 -81.09 49.99 -81.04 64.89 -80.82 79.78 -80.46 94.68 -80.03 109.58 -79.6 124.47 -79.22 139.37 -78.98 154.26 -78.9 169.16 -78.99 184.06 -79.25 198.95 -79.63 213.85 -80.07 228.74 -80.5 243.64 -80.84 258.54 -81.05 273.43 -81.09 288.33 -80.95 303.22 -80.65 318.12 -80.25 333.02 -79.81 347.91 -79.4 362.81 -79.08 377.7 -78.91 392.6 -69.17 396.44 -59.43 400.51 -49.69 404.55 -39.95 408.29 -30.2 411.49 -20.46 413.94 -2.2 415.85 0.95 415.97 13.16 408.57 25.44 399.69 37.82 389.6 50.32 378.72 62.94 367.52 75.7 356.5 88.59 346.15 101.61 336.86 114.74 328.93 127.96 322.52 141.26 317.62 154.59 314.07 167.92 311.59 181.22 309.79 194.45 308.2 207.57 306.35 220.55 303.81 233.34 300.21 245.93 295.29 258.29 288.93 270.41 281.18 282.28 272.19 293.91 262.26 305.3 251.78 316.48 241.17 327.47 230.88 338.31 221.31 349.06 212.79 359.76 205.53 370.46 199.62 381.23 195 392.12 191.48 403.19 188.79 414.5 186.54 426.1 184.34 438.03 181.76 450.32 178.44 463 174.11 476.07 168.58 489.55 161.79 503.41 153.83 517.63 144.87 532.18 135.22 546.99 125.22 562.01 115.25 577.18 105.7 592.41 96.88 607.61 89.05 622.72 82.34 637.64 76.79 652.29 72.3 666.59 68.69 680.48 65.67 693.9 62.9 706.8 60.03 719.16 56.72 730.95 52.69 742.19 47.72 752.88 41.69 763.06 34.61 772.79 26.58 782.13 17.79 791.17 8.52 800 -0.92 789.97 -18.39 782.15 -35.87 778.25 -53.35 779.12 -70.82 784.57 -88.3 793.41 -105.77 800.87 -130.49 782.89 -135.08 767.75 -133.13 752.61 -132.17 737.47 -132.34 722.33 -133.61 707.19 -135.81 692.05 -138.61 676.91 -141.61 661.77 -144.38 646.63 -146.51 631.48 -147.71 616.34 -147.79 601.2 -146.75 586.06 -144.73 570.92 -142.03 555.78 -139.03 540.64 -136.18 525.5 -133.87 510.36 -132.45 495.22 -132.12 480.08 -132.92 464.94 -134.75 449.8 -137.33 434.66 -140.3 419.52 -143.22 404.38 -145.68 389.23 -147.31 374.09 -147.89 358.95 -147.34 343.81 -145.72 328.67 -143.27 313.53 -140.36 298.39 -137.39 283.25 -134.79 268.11 -132.95 252.97 -132.13 237.83 -132.43 222.69 -133.84 207.55 -136.12 192.41 -138.97 177.27 -141.97 162.13 -144.68 146.98 -146.71 131.84 -147.78 116.7 -147.72 101.56 -146.55 86.42 -144.43 71.28 -141.67 56.14 -138.67 41 -135.86 25.86 -133.65 10.72 -132.35 -4.41 -132.16 -19.55 -133.1 -34.69 -135.03 -49.83 -137.68 -64.97 -140.66 -80.11 -143.55 -95.25 -145.93 -110.4 -147.44 -125.54 -147.89 -134.82 -134.46 -116.65 -118.26 -107.08 -110.36 -97.63 -101.99 -88.3 -93.21 -79.08 -84.06" fill="url(#uuunion-grad2)" filter="url(#uuunion-blur)"></path><path d="M778.37 398.52Q788.11 394.53 797.85 390.89 807.6 387.85 817.34 385.61 827.08 384.3 836.82 384.02 846.56 384.79 856.31 386.55 856.48 401.36 860.47 416.17 867.62 430.98 876.78 445.79 886.46 460.6 895.09 475.42 901.28 490.23 904.01 505.04 902.85 519.85 897.99 534.66 890.21 549.47 880.77 564.28 871.21 579.09 863.07 593.9 857.68 608.71 855.9 623.53 858.03 638.34 863.72 653.15 872.05 667.96 881.67 682.77 891.01 697.58 898.57 712.39 903.12 727.2 903.92 742.01 900.84 756.82 894.38 771.63 885.59 786.45 875.89 801.26 866.86 816.07 859.96 830.88 856.3 845.69 856.49 860.5 843.07 857.35 829.66 857 816.25 859.48 802.83 864.49 789.42 871.41 776.01 879.39 762.59 887.45 749.18 894.58 735.77 899.92 722.35 902.8 708.94 902.87 695.53 900.12 682.11 894.88 668.7 887.82 655.29 879.78 641.88 871.78 628.46 864.78 615.05 859.67 601.64 857.05 588.22 857.27 574.81 860.29 561.4 865.74 547.98 872.95 534.57 881.02 521.16 888.97 507.74 895.81 494.33 900.7 480.92 903.04 467.5 902.54 454.09 899.26 440.68 893.6 427.27 886.26 413.85 878.16 400.44 870.28 387.03 863.59 373.61 858.93 360.2 856.87 346.79 857.66 333.37 861.2 319.96 867.06 306.55 874.51 293.13 882.64 279.72 890.45 266.31 896.96 252.89 901.39 239.48 903.17 226.07 902.1 212.66 898.3 199.24 892.25 185.83 884.68 172.42 876.54 159 868.82 145.59 862.48 132.18 858.3 118.76 856.8 105.35 858.15 91.94 862.2 78.52 868.44 65.11 876.11 51.7 884.25 38.28 891.87 24.87 898.03 4.74 897.5 -1.92 882.89 -1.8 872.74 -1.63 862.59 -1.41 852.44 -1.16 842.29 -0.52 827.07 0.36 822 13.18 814.54 26.07 804.98 39.02 793.67 52 781.15 64.97 768.06 77.91 755.1 90.79 742.94 103.58 732.19 116.25 723.28 128.78 716.47 141.15 711.8 153.34 709.09 165.36 707.96 177.21 707.88 188.89 708.2 200.43 708.28 211.84 707.45 223.16 705.18 234.43 701.09 245.69 694.96 256.97 686.8 268.34 676.83 279.83 665.45 291.49 653.17 303.36 640.64 315.48 628.47 327.87 617.28 340.56 607.55 353.56 599.63 366.88 593.65 380.49 589.59 394.4 587.2 408.56 586.06 422.93 585.65 437.48 585.37 452.13 584.62 466.83 582.83 481.51 579.57 496.11 574.55 510.54 567.66 524.75 558.98 538.67 548.79 552.24 537.49 565.41 525.61 578.15 513.73 590.44 502.41 602.25 492.17 613.59 483.4 624.48 476.34 634.96 471.05 645.05 467.42 654.84 465.16 664.38 463.85 673.75 462.98 683.05 462.01 692.37 460.4 701.81 457.67 711.46 453.5 721.41 447.68 731.75 440.19 742.56 431.18 753.9 420.94 772.1 404.2 778.37 398.52" fill="url(#uuunion-grad3)" filter="url(#uuunion-blur2)"></path></svg>